<?xml version="1.0" encoding="utf-8" standalone="no"?>
<!DOCTYPE svg PUBLIC "-//W3C//DTD SVG 1.1//EN"
  "http://www.w3.org/Graphics/SVG/1.1/DTD/svg11.dtd">
<svg xmlns:xlink="http://www.w3.org/1999/xlink" width="628.2pt" height="362.917969pt" viewBox="0 0 628.2 362.917969" xmlns="http://www.w3.org/2000/svg" version="1.1">
 <metadata>
  <rdf:RDF xmlns:dc="http://purl.org/dc/elements/1.1/" xmlns:cc="http://creativecommons.org/ns#" xmlns:rdf="http://www.w3.org/1999/02/22-rdf-syntax-ns#">
   <cc:Work>
    <dc:type rdf:resource="http://purl.org/dc/dcmitype/StillImage"/>
    <dc:date>2026-03-13T10:08:08.288895</dc:date>
    <dc:format>image/svg+xml</dc:format>
    <dc:creator>
     <cc:Agent>
      <dc:title>Matplotlib v3.9.4, https://matplotlib.org/</dc:title>
     </cc:Agent>
    </dc:creator>
   </cc:Work>
  </rdf:RDF>
 </metadata>
 <defs>
  <style type="text/css">*{stroke-linejoin: round; stroke-linecap: butt}</style>
 </defs>
 <g id="figure_1">
  <g id="patch_1">
   <path d="M 0 362.917969 
L 628.2 362.917969 
L 628.2 0 
L 0 0 
z
" style="fill: #ffffff"/>
  </g>
  <g id="axes_1">
   <g id="patch_2">
    <path d="M 7.2 355.717969 
L 621 355.717969 
L 621 264.241969 
L 7.2 264.241969 
z
" clip-path="url(#p1eec25ff6d)" style="fill: #dbeafe"/>
   </g>
   <g id="patch_3">
    <path d="M 51.042857 347.401969 
L 121.191429 347.401969 
L 121.191429 301.663969 
L 51.042857 301.663969 
z
" clip-path="url(#p1eec25ff6d)" style="fill: #93c5fd; stroke: #1d4ed8; stroke-width: 1.5; stroke-linejoin: miter"/>
   </g>
   <g id="patch_4">
    <path d="M 195.724286 230.977969 
L 292.178571 230.977969 
L 292.178571 176.923969 
L 195.724286 176.923969 
z
" clip-path="url(#p1eec25ff6d)" style="fill: #fde68a; stroke: #b45309; stroke-width: 1.5; stroke-linejoin: miter"/>
   </g>
   <g id="patch_5">
    <path d="M 318.484286 272.557969 
L 340.405714 272.557969 
L 340.405714 89.605969 
L 318.484286 89.605969 
z
" clip-path="url(#p1eec25ff6d)" style="fill: #bfdbfe; stroke: #2563eb; stroke-width: 1.5; stroke-linejoin: miter"/>
   </g>
   <g id="patch_6">
    <path d="M 371.095714 106.237969 
L 502.624286 106.237969 
L 502.624286 56.341969 
L 371.095714 56.341969 
z
" clip-path="url(#p1eec25ff6d)" style="fill: #c7d2fe; stroke: #4338ca; stroke-width: 1.5; stroke-linejoin: miter"/>
   </g>
   <g id="patch_7">
    <path d="M 458.781429 272.557969 
L 480.702857 272.557969 
L 480.702857 106.237969 
L 458.781429 106.237969 
z
" clip-path="url(#p1eec25ff6d)" style="fill: #e0f2fe; stroke: #0891b2; stroke-width: 1.5; stroke-linejoin: miter"/>
   </g>
   <g id="patch_8">
    <path d="M 469.742143 187.318969 
C 473.811684 187.318969 477.715096 185.785573 480.592696 183.056494 
C 483.470297 180.327415 485.087143 176.625469 485.087143 172.765969 
C 485.087143 168.906468 483.470297 165.204523 480.592696 162.475444 
C 477.715096 159.746365 473.811684 158.212969 469.742143 158.212969 
C 465.672601 158.212969 461.76919 159.746365 458.891589 162.475444 
C 456.013989 165.204523 454.397143 168.906468 454.397143 172.765969 
C 454.397143 176.625469 456.013989 180.327415 458.891589 183.056494 
C 461.76919 185.785573 465.672601 187.318969 469.742143 187.318969 
z
" clip-path="url(#p1eec25ff6d)" style="fill: #d1fae5; stroke: #047857; stroke-width: 1.5; stroke-linejoin: miter"/>
   </g>
   <g id="patch_9">
    <path d="M 122.29914 320.785465 
Q 158.459366 266.318696 193.382822 213.714827 
" clip-path="url(#p1eec25ff6d)" style="fill: none; stroke: #1d4ed8; stroke-width: 2; stroke-linecap: round"/>
    <path d="M 188.728464 216.386335 
L 193.382822 213.714827 
L 192.727413 219.041218 
z
" clip-path="url(#p1eec25ff6d)" style="fill: #1d4ed8; stroke: #1d4ed8; stroke-width: 2; stroke-linecap: round"/>
   </g>
   <g id="patch_10">
    <path d="M 294.179116 203.950969 
Q 305.330359 203.950969 314.245533 203.950969 
" clip-path="url(#p1eec25ff6d)" style="fill: none; stroke: #b45309; stroke-width: 2; stroke-linecap: round"/>
    <path d="M 309.445533 201.550969 
L 314.245533 203.950969 
L 309.445533 206.350969 
z
" clip-path="url(#p1eec25ff6d)" style="fill: #b45309; stroke: #b45309; stroke-width: 2; stroke-linecap: round"/>
   </g>
   <g id="patch_11">
    <path d="M 329.445 179.085702 
Q 329.445 143.660024 329.445 110.470413 
" clip-path="url(#p1eec25ff6d)" style="fill: none; stroke: #2563eb; stroke-width: 2; stroke-linecap: round"/>
    <path d="M 327.045 115.270413 
L 329.445 110.470413 
L 331.845 115.270413 
z
" clip-path="url(#p1eec25ff6d)" style="fill: #2563eb; stroke: #2563eb; stroke-width: 2; stroke-linecap: round"/>
   </g>
   <g id="patch_12">
    <path d="M 373.094653 81.289969 
Q 414.937821 81.289969 454.544922 81.289969 
" clip-path="url(#p1eec25ff6d)" style="fill: none; stroke: #1d4ed8; stroke-width: 2; stroke-linecap: round"/>
    <path d="M 449.744922 78.889969 
L 454.544922 81.289969 
L 449.744922 83.689969 
z
" clip-path="url(#p1eec25ff6d)" style="fill: #1d4ed8; stroke: #1d4ed8; stroke-width: 2; stroke-linecap: round"/>
   </g>
   <g id="patch_13">
    <path d="M 469.742143 108.240326 
Q 469.742143 189.399993 469.742143 268.323592 
" clip-path="url(#p1eec25ff6d)" style="fill: none; stroke: #0891b2; stroke-width: 2; stroke-linecap: round"/>
    <path d="M 472.142143 263.523592 
L 469.742143 268.323592 
L 467.342143 263.523592 
z
" clip-path="url(#p1eec25ff6d)" style="fill: #0891b2; stroke: #0891b2; stroke-width: 2; stroke-linecap: round"/>
   </g>
   <g id="patch_14">
    <path d="M 456.790819 272.762677 
Q 276.833649 291.268961 99.100817 309.5465 
" clip-path="url(#p1eec25ff6d)" style="fill: none; stroke: #0f766e; stroke-width: 2; stroke-linecap: round"/>
    <path d="M 104.121149 311.44288 
L 99.100817 309.5465 
L 103.630121 306.668062 
z
" clip-path="url(#p1eec25ff6d)" style="fill: #0f766e; stroke: #0f766e; stroke-width: 2; stroke-linecap: round"/>
   </g>
   <g id="text_1">
    <!-- Sea level -->
    <g style="fill: #1e3a8a" transform="translate(29.121429 280.873969) scale(0.1 -0.1)">
     <defs>
      <path id="DejaVuSans-53" d="M 3425 4513 
L 3425 3897 
Q 3066 4069 2747 4153 
Q 2428 4238 2131 4238 
Q 1616 4238 1336 4038 
Q 1056 3838 1056 3469 
Q 1056 3159 1242 3001 
Q 1428 2844 1947 2747 
L 2328 2669 
Q 3034 2534 3370 2195 
Q 3706 1856 3706 1288 
Q 3706 609 3251 259 
Q 2797 -91 1919 -91 
Q 1588 -91 1214 -16 
Q 841 59 441 206 
L 441 856 
Q 825 641 1194 531 
Q 1563 422 1919 422 
Q 2459 422 2753 634 
Q 3047 847 3047 1241 
Q 3047 1584 2836 1778 
Q 2625 1972 2144 2069 
L 1759 2144 
Q 1053 2284 737 2584 
Q 422 2884 422 3419 
Q 422 4038 858 4394 
Q 1294 4750 2059 4750 
Q 2388 4750 2728 4690 
Q 3069 4631 3425 4513 
z
" transform="scale(0.015625)"/>
      <path id="DejaVuSans-65" d="M 3597 1894 
L 3597 1613 
L 953 1613 
Q 991 1019 1311 708 
Q 1631 397 2203 397 
Q 2534 397 2845 478 
Q 3156 559 3463 722 
L 3463 178 
Q 3153 47 2828 -22 
Q 2503 -91 2169 -91 
Q 1331 -91 842 396 
Q 353 884 353 1716 
Q 353 2575 817 3079 
Q 1281 3584 2069 3584 
Q 2775 3584 3186 3129 
Q 3597 2675 3597 1894 
z
M 3022 2063 
Q 3016 2534 2758 2815 
Q 2500 3097 2075 3097 
Q 1594 3097 1305 2825 
Q 1016 2553 972 2059 
L 3022 2063 
z
" transform="scale(0.015625)"/>
      <path id="DejaVuSans-61" d="M 2194 1759 
Q 1497 1759 1228 1600 
Q 959 1441 959 1056 
Q 959 750 1161 570 
Q 1363 391 1709 391 
Q 2188 391 2477 730 
Q 2766 1069 2766 1631 
L 2766 1759 
L 2194 1759 
z
M 3341 1997 
L 3341 0 
L 2766 0 
L 2766 531 
Q 2569 213 2275 61 
Q 1981 -91 1556 -91 
Q 1019 -91 701 211 
Q 384 513 384 1019 
Q 384 1609 779 1909 
Q 1175 2209 1959 2209 
L 2766 2209 
L 2766 2266 
Q 2766 2663 2505 2880 
Q 2244 3097 1772 3097 
Q 1472 3097 1187 3025 
Q 903 2953 641 2809 
L 641 3341 
Q 956 3463 1253 3523 
Q 1550 3584 1831 3584 
Q 2591 3584 2966 3190 
Q 3341 2797 3341 1997 
z
" transform="scale(0.015625)"/>
      <path id="DejaVuSans-20" transform="scale(0.015625)"/>
      <path id="DejaVuSans-6c" d="M 603 4863 
L 1178 4863 
L 1178 0 
L 603 0 
L 603 4863 
z
" transform="scale(0.015625)"/>
      <path id="DejaVuSans-76" d="M 191 3500 
L 800 3500 
L 1894 563 
L 2988 3500 
L 3597 3500 
L 2284 0 
L 1503 0 
L 191 3500 
z
" transform="scale(0.015625)"/>
     </defs>
     <use xlink:href="#DejaVuSans-53"/>
     <use xlink:href="#DejaVuSans-65" x="63.476562"/>
     <use xlink:href="#DejaVuSans-61" x="125"/>
     <use xlink:href="#DejaVuSans-20" x="186.279297"/>
     <use xlink:href="#DejaVuSans-6c" x="218.066406"/>
     <use xlink:href="#DejaVuSans-65" x="245.849609"/>
     <use xlink:href="#DejaVuSans-76" x="307.373047"/>
     <use xlink:href="#DejaVuSans-65" x="366.552734"/>
     <use xlink:href="#DejaVuSans-6c" x="428.076172"/>
    </g>
   </g>
   <g id="text_2">
    <!-- Deep water -->
    <g transform="translate(57.105424 321.693438) scale(0.1 -0.1)">
     <defs>
      <path id="DejaVuSans-44" d="M 1259 4147 
L 1259 519 
L 2022 519 
Q 2988 519 3436 956 
Q 3884 1394 3884 2338 
Q 3884 3275 3436 3711 
Q 2988 4147 2022 4147 
L 1259 4147 
z
M 628 4666 
L 1925 4666 
Q 3281 4666 3915 4102 
Q 4550 3538 4550 2338 
Q 4550 1131 3912 565 
Q 3275 0 1925 0 
L 628 0 
L 628 4666 
z
" transform="scale(0.015625)"/>
      <path id="DejaVuSans-70" d="M 1159 525 
L 1159 -1331 
L 581 -1331 
L 581 3500 
L 1159 3500 
L 1159 2969 
Q 1341 3281 1617 3432 
Q 1894 3584 2278 3584 
Q 2916 3584 3314 3078 
Q 3713 2572 3713 1747 
Q 3713 922 3314 415 
Q 2916 -91 2278 -91 
Q 1894 -91 1617 61 
Q 1341 213 1159 525 
z
M 3116 1747 
Q 3116 2381 2855 2742 
Q 2594 3103 2138 3103 
Q 1681 3103 1420 2742 
Q 1159 2381 1159 1747 
Q 1159 1113 1420 752 
Q 1681 391 2138 391 
Q 2594 391 2855 752 
Q 3116 1113 3116 1747 
z
" transform="scale(0.015625)"/>
      <path id="DejaVuSans-77" d="M 269 3500 
L 844 3500 
L 1563 769 
L 2278 3500 
L 2956 3500 
L 3675 769 
L 4391 3500 
L 4966 3500 
L 4050 0 
L 3372 0 
L 2619 2869 
L 1863 0 
L 1184 0 
L 269 3500 
z
" transform="scale(0.015625)"/>
      <path id="DejaVuSans-74" d="M 1172 4494 
L 1172 3500 
L 2356 3500 
L 2356 3053 
L 1172 3053 
L 1172 1153 
Q 1172 725 1289 603 
Q 1406 481 1766 481 
L 2356 481 
L 2356 0 
L 1766 0 
Q 1100 0 847 248 
Q 594 497 594 1153 
L 594 3053 
L 172 3053 
L 172 3500 
L 594 3500 
L 594 4494 
L 1172 4494 
z
" transform="scale(0.015625)"/>
      <path id="DejaVuSans-72" d="M 2631 2963 
Q 2534 3019 2420 3045 
Q 2306 3072 2169 3072 
Q 1681 3072 1420 2755 
Q 1159 2438 1159 1844 
L 1159 0 
L 581 0 
L 581 3500 
L 1159 3500 
L 1159 2956 
Q 1341 3275 1631 3429 
Q 1922 3584 2338 3584 
Q 2397 3584 2469 3576 
Q 2541 3569 2628 3553 
L 2631 2963 
z
" transform="scale(0.015625)"/>
     </defs>
     <use xlink:href="#DejaVuSans-44"/>
     <use xlink:href="#DejaVuSans-65" x="77.001953"/>
     <use xlink:href="#DejaVuSans-65" x="138.525391"/>
     <use xlink:href="#DejaVuSans-70" x="200.048828"/>
     <use xlink:href="#DejaVuSans-20" x="263.525391"/>
     <use xlink:href="#DejaVuSans-77" x="295.3125"/>
     <use xlink:href="#DejaVuSans-61" x="377.099609"/>
     <use xlink:href="#DejaVuSans-74" x="438.378906"/>
     <use xlink:href="#DejaVuSans-65" x="477.587891"/>
     <use xlink:href="#DejaVuSans-72" x="539.111328"/>
    </g>
    <!-- intake -->
    <g transform="translate(70.744487 332.89125) scale(0.1 -0.1)">
     <defs>
      <path id="DejaVuSans-69" d="M 603 3500 
L 1178 3500 
L 1178 0 
L 603 0 
L 603 3500 
z
M 603 4863 
L 1178 4863 
L 1178 4134 
L 603 4134 
L 603 4863 
z
" transform="scale(0.015625)"/>
      <path id="DejaVuSans-6e" d="M 3513 2113 
L 3513 0 
L 2938 0 
L 2938 2094 
Q 2938 2591 2744 2837 
Q 2550 3084 2163 3084 
Q 1697 3084 1428 2787 
Q 1159 2491 1159 1978 
L 1159 0 
L 581 0 
L 581 3500 
L 1159 3500 
L 1159 2956 
Q 1366 3272 1645 3428 
Q 1925 3584 2291 3584 
Q 2894 3584 3203 3211 
Q 3513 2838 3513 2113 
z
" transform="scale(0.015625)"/>
      <path id="DejaVuSans-6b" d="M 581 4863 
L 1159 4863 
L 1159 1991 
L 2875 3500 
L 3609 3500 
L 1753 1863 
L 3688 0 
L 2938 0 
L 1159 1709 
L 1159 0 
L 581 0 
L 581 4863 
z
" transform="scale(0.015625)"/>
     </defs>
     <use xlink:href="#DejaVuSans-69"/>
     <use xlink:href="#DejaVuSans-6e" x="27.783203"/>
     <use xlink:href="#DejaVuSans-74" x="91.162109"/>
     <use xlink:href="#DejaVuSans-61" x="130.371094"/>
     <use xlink:href="#DejaVuSans-6b" x="191.650391"/>
     <use xlink:href="#DejaVuSans-65" x="245.935547"/>
    </g>
   </g>
   <g id="text_3">
    <!-- Data center -->
    <g transform="translate(214.337366 201.111437) scale(0.1 -0.1)">
     <defs>
      <path id="DejaVuSans-63" d="M 3122 3366 
L 3122 2828 
Q 2878 2963 2633 3030 
Q 2388 3097 2138 3097 
Q 1578 3097 1268 2742 
Q 959 2388 959 1747 
Q 959 1106 1268 751 
Q 1578 397 2138 397 
Q 2388 397 2633 464 
Q 2878 531 3122 666 
L 3122 134 
Q 2881 22 2623 -34 
Q 2366 -91 2075 -91 
Q 1284 -91 818 406 
Q 353 903 353 1747 
Q 353 2603 823 3093 
Q 1294 3584 2113 3584 
Q 2378 3584 2631 3529 
Q 2884 3475 3122 3366 
z
" transform="scale(0.015625)"/>
     </defs>
     <use xlink:href="#DejaVuSans-44"/>
     <use xlink:href="#DejaVuSans-61" x="77.001953"/>
     <use xlink:href="#DejaVuSans-74" x="138.28125"/>
     <use xlink:href="#DejaVuSans-61" x="177.490234"/>
     <use xlink:href="#DejaVuSans-20" x="238.769531"/>
     <use xlink:href="#DejaVuSans-63" x="270.556641"/>
     <use xlink:href="#DejaVuSans-65" x="325.537109"/>
     <use xlink:href="#DejaVuSans-6e" x="387.060547"/>
     <use xlink:href="#DejaVuSans-74" x="450.439453"/>
     <use xlink:href="#DejaVuSans-65" x="489.648438"/>
     <use xlink:href="#DejaVuSans-72" x="551.171875"/>
    </g>
    <!-- heat exchanger -->
    <g transform="translate(204.774866 212.30925) scale(0.1 -0.1)">
     <defs>
      <path id="DejaVuSans-68" d="M 3513 2113 
L 3513 0 
L 2938 0 
L 2938 2094 
Q 2938 2591 2744 2837 
Q 2550 3084 2163 3084 
Q 1697 3084 1428 2787 
Q 1159 2491 1159 1978 
L 1159 0 
L 581 0 
L 581 4863 
L 1159 4863 
L 1159 2956 
Q 1366 3272 1645 3428 
Q 1925 3584 2291 3584 
Q 2894 3584 3203 3211 
Q 3513 2838 3513 2113 
z
" transform="scale(0.015625)"/>
      <path id="DejaVuSans-78" d="M 3513 3500 
L 2247 1797 
L 3578 0 
L 2900 0 
L 1881 1375 
L 863 0 
L 184 0 
L 1544 1831 
L 300 3500 
L 978 3500 
L 1906 2253 
L 2834 3500 
L 3513 3500 
z
" transform="scale(0.015625)"/>
      <path id="DejaVuSans-67" d="M 2906 1791 
Q 2906 2416 2648 2759 
Q 2391 3103 1925 3103 
Q 1463 3103 1205 2759 
Q 947 2416 947 1791 
Q 947 1169 1205 825 
Q 1463 481 1925 481 
Q 2391 481 2648 825 
Q 2906 1169 2906 1791 
z
M 3481 434 
Q 3481 -459 3084 -895 
Q 2688 -1331 1869 -1331 
Q 1566 -1331 1297 -1286 
Q 1028 -1241 775 -1147 
L 775 -588 
Q 1028 -725 1275 -790 
Q 1522 -856 1778 -856 
Q 2344 -856 2625 -561 
Q 2906 -266 2906 331 
L 2906 616 
Q 2728 306 2450 153 
Q 2172 0 1784 0 
Q 1141 0 747 490 
Q 353 981 353 1791 
Q 353 2603 747 3093 
Q 1141 3584 1784 3584 
Q 2172 3584 2450 3431 
Q 2728 3278 2906 2969 
L 2906 3500 
L 3481 3500 
L 3481 434 
z
" transform="scale(0.015625)"/>
     </defs>
     <use xlink:href="#DejaVuSans-68"/>
     <use xlink:href="#DejaVuSans-65" x="63.378906"/>
     <use xlink:href="#DejaVuSans-61" x="124.902344"/>
     <use xlink:href="#DejaVuSans-74" x="186.181641"/>
     <use xlink:href="#DejaVuSans-20" x="225.390625"/>
     <use xlink:href="#DejaVuSans-65" x="257.177734"/>
     <use xlink:href="#DejaVuSans-78" x="316.951172"/>
     <use xlink:href="#DejaVuSans-63" x="374.380859"/>
     <use xlink:href="#DejaVuSans-68" x="429.361328"/>
     <use xlink:href="#DejaVuSans-61" x="492.740234"/>
     <use xlink:href="#DejaVuSans-6e" x="554.019531"/>
     <use xlink:href="#DejaVuSans-67" x="617.398438"/>
     <use xlink:href="#DejaVuSans-65" x="680.875"/>
     <use xlink:href="#DejaVuSans-72" x="742.398438"/>
    </g>
   </g>
   <g id="text_4">
    <!-- Buoyancy-driven -->
    <g transform="translate(326.605469 214.865187) rotate(-90) scale(0.1 -0.1)">
     <defs>
      <path id="DejaVuSans-42" d="M 1259 2228 
L 1259 519 
L 2272 519 
Q 2781 519 3026 730 
Q 3272 941 3272 1375 
Q 3272 1813 3026 2020 
Q 2781 2228 2272 2228 
L 1259 2228 
z
M 1259 4147 
L 1259 2741 
L 2194 2741 
Q 2656 2741 2882 2914 
Q 3109 3088 3109 3444 
Q 3109 3797 2882 3972 
Q 2656 4147 2194 4147 
L 1259 4147 
z
M 628 4666 
L 2241 4666 
Q 2963 4666 3353 4366 
Q 3744 4066 3744 3513 
Q 3744 3084 3544 2831 
Q 3344 2578 2956 2516 
Q 3422 2416 3680 2098 
Q 3938 1781 3938 1306 
Q 3938 681 3513 340 
Q 3088 0 2303 0 
L 628 0 
L 628 4666 
z
" transform="scale(0.015625)"/>
      <path id="DejaVuSans-75" d="M 544 1381 
L 544 3500 
L 1119 3500 
L 1119 1403 
Q 1119 906 1312 657 
Q 1506 409 1894 409 
Q 2359 409 2629 706 
Q 2900 1003 2900 1516 
L 2900 3500 
L 3475 3500 
L 3475 0 
L 2900 0 
L 2900 538 
Q 2691 219 2414 64 
Q 2138 -91 1772 -91 
Q 1169 -91 856 284 
Q 544 659 544 1381 
z
M 1991 3584 
L 1991 3584 
z
" transform="scale(0.015625)"/>
      <path id="DejaVuSans-6f" d="M 1959 3097 
Q 1497 3097 1228 2736 
Q 959 2375 959 1747 
Q 959 1119 1226 758 
Q 1494 397 1959 397 
Q 2419 397 2687 759 
Q 2956 1122 2956 1747 
Q 2956 2369 2687 2733 
Q 2419 3097 1959 3097 
z
M 1959 3584 
Q 2709 3584 3137 3096 
Q 3566 2609 3566 1747 
Q 3566 888 3137 398 
Q 2709 -91 1959 -91 
Q 1206 -91 779 398 
Q 353 888 353 1747 
Q 353 2609 779 3096 
Q 1206 3584 1959 3584 
z
" transform="scale(0.015625)"/>
      <path id="DejaVuSans-79" d="M 2059 -325 
Q 1816 -950 1584 -1140 
Q 1353 -1331 966 -1331 
L 506 -1331 
L 506 -850 
L 844 -850 
Q 1081 -850 1212 -737 
Q 1344 -625 1503 -206 
L 1606 56 
L 191 3500 
L 800 3500 
L 1894 763 
L 2988 3500 
L 3597 3500 
L 2059 -325 
z
" transform="scale(0.015625)"/>
      <path id="DejaVuSans-2d" d="M 313 2009 
L 1997 2009 
L 1997 1497 
L 313 1497 
L 313 2009 
z
" transform="scale(0.015625)"/>
      <path id="DejaVuSans-64" d="M 2906 2969 
L 2906 4863 
L 3481 4863 
L 3481 0 
L 2906 0 
L 2906 525 
Q 2725 213 2448 61 
Q 2172 -91 1784 -91 
Q 1150 -91 751 415 
Q 353 922 353 1747 
Q 353 2572 751 3078 
Q 1150 3584 1784 3584 
Q 2172 3584 2448 3432 
Q 2725 3281 2906 2969 
z
M 947 1747 
Q 947 1113 1208 752 
Q 1469 391 1925 391 
Q 2381 391 2643 752 
Q 2906 1113 2906 1747 
Q 2906 2381 2643 2742 
Q 2381 3103 1925 3103 
Q 1469 3103 1208 2742 
Q 947 2381 947 1747 
z
" transform="scale(0.015625)"/>
     </defs>
     <use xlink:href="#DejaVuSans-42"/>
     <use xlink:href="#DejaVuSans-75" x="68.603516"/>
     <use xlink:href="#DejaVuSans-6f" x="131.982422"/>
     <use xlink:href="#DejaVuSans-79" x="193.164062"/>
     <use xlink:href="#DejaVuSans-61" x="252.34375"/>
     <use xlink:href="#DejaVuSans-6e" x="313.623047"/>
     <use xlink:href="#DejaVuSans-63" x="377.001953"/>
     <use xlink:href="#DejaVuSans-79" x="431.982422"/>
     <use xlink:href="#DejaVuSans-2d" x="489.412109"/>
     <use xlink:href="#DejaVuSans-64" x="525.496094"/>
     <use xlink:href="#DejaVuSans-72" x="588.972656"/>
     <use xlink:href="#DejaVuSans-69" x="630.085938"/>
     <use xlink:href="#DejaVuSans-76" x="657.869141"/>
     <use xlink:href="#DejaVuSans-65" x="717.048828"/>
     <use xlink:href="#DejaVuSans-6e" x="778.572266"/>
    </g>
    <!-- vertical rise -->
    <g transform="translate(337.803281 202.123781) rotate(-90) scale(0.1 -0.1)">
     <defs>
      <path id="DejaVuSans-73" d="M 2834 3397 
L 2834 2853 
Q 2591 2978 2328 3040 
Q 2066 3103 1784 3103 
Q 1356 3103 1142 2972 
Q 928 2841 928 2578 
Q 928 2378 1081 2264 
Q 1234 2150 1697 2047 
L 1894 2003 
Q 2506 1872 2764 1633 
Q 3022 1394 3022 966 
Q 3022 478 2636 193 
Q 2250 -91 1575 -91 
Q 1294 -91 989 -36 
Q 684 19 347 128 
L 347 722 
Q 666 556 975 473 
Q 1284 391 1588 391 
Q 1994 391 2212 530 
Q 2431 669 2431 922 
Q 2431 1156 2273 1281 
Q 2116 1406 1581 1522 
L 1381 1569 
Q 847 1681 609 1914 
Q 372 2147 372 2553 
Q 372 3047 722 3315 
Q 1072 3584 1716 3584 
Q 2034 3584 2315 3537 
Q 2597 3491 2834 3397 
z
" transform="scale(0.015625)"/>
     </defs>
     <use xlink:href="#DejaVuSans-76"/>
     <use xlink:href="#DejaVuSans-65" x="59.179688"/>
     <use xlink:href="#DejaVuSans-72" x="120.703125"/>
     <use xlink:href="#DejaVuSans-74" x="161.816406"/>
     <use xlink:href="#DejaVuSans-69" x="201.025391"/>
     <use xlink:href="#DejaVuSans-63" x="228.808594"/>
     <use xlink:href="#DejaVuSans-61" x="283.789062"/>
     <use xlink:href="#DejaVuSans-6c" x="345.068359"/>
     <use xlink:href="#DejaVuSans-20" x="372.851562"/>
     <use xlink:href="#DejaVuSans-72" x="404.638672"/>
     <use xlink:href="#DejaVuSans-69" x="445.751953"/>
     <use xlink:href="#DejaVuSans-73" x="473.535156"/>
     <use xlink:href="#DejaVuSans-65" x="525.634766"/>
    </g>
   </g>
   <g id="text_5">
    <!-- Elevated reservoir -->
    <g transform="translate(391.192031 84.049344) scale(0.1 -0.1)">
     <defs>
      <path id="DejaVuSans-45" d="M 628 4666 
L 3578 4666 
L 3578 4134 
L 1259 4134 
L 1259 2753 
L 3481 2753 
L 3481 2222 
L 1259 2222 
L 1259 531 
L 3634 531 
L 3634 0 
L 628 0 
L 628 4666 
z
" transform="scale(0.015625)"/>
     </defs>
     <use xlink:href="#DejaVuSans-45"/>
     <use xlink:href="#DejaVuSans-6c" x="63.183594"/>
     <use xlink:href="#DejaVuSans-65" x="90.966797"/>
     <use xlink:href="#DejaVuSans-76" x="152.490234"/>
     <use xlink:href="#DejaVuSans-61" x="211.669922"/>
     <use xlink:href="#DejaVuSans-74" x="272.949219"/>
     <use xlink:href="#DejaVuSans-65" x="312.158203"/>
     <use xlink:href="#DejaVuSans-64" x="373.681641"/>
     <use xlink:href="#DejaVuSans-20" x="437.158203"/>
     <use xlink:href="#DejaVuSans-72" x="468.945312"/>
     <use xlink:href="#DejaVuSans-65" x="507.808594"/>
     <use xlink:href="#DejaVuSans-73" x="569.332031"/>
     <use xlink:href="#DejaVuSans-65" x="621.431641"/>
     <use xlink:href="#DejaVuSans-72" x="682.955078"/>
     <use xlink:href="#DejaVuSans-76" x="724.068359"/>
     <use xlink:href="#DejaVuSans-6f" x="783.248047"/>
     <use xlink:href="#DejaVuSans-69" x="844.429688"/>
     <use xlink:href="#DejaVuSans-72" x="872.212891"/>
    </g>
   </g>
   <g id="text_6">
    <!-- Gravity -->
    <g transform="translate(492.68558 207.659687) rotate(-90) scale(0.1 -0.1)">
     <defs>
      <path id="DejaVuSans-47" d="M 3809 666 
L 3809 1919 
L 2778 1919 
L 2778 2438 
L 4434 2438 
L 4434 434 
Q 4069 175 3628 42 
Q 3188 -91 2688 -91 
Q 1594 -91 976 548 
Q 359 1188 359 2328 
Q 359 3472 976 4111 
Q 1594 4750 2688 4750 
Q 3144 4750 3555 4637 
Q 3966 4525 4313 4306 
L 4313 3634 
Q 3963 3931 3569 4081 
Q 3175 4231 2741 4231 
Q 1884 4231 1454 3753 
Q 1025 3275 1025 2328 
Q 1025 1384 1454 906 
Q 1884 428 2741 428 
Q 3075 428 3337 486 
Q 3600 544 3809 666 
z
" transform="scale(0.015625)"/>
     </defs>
     <use xlink:href="#DejaVuSans-47"/>
     <use xlink:href="#DejaVuSans-72" x="77.490234"/>
     <use xlink:href="#DejaVuSans-61" x="118.603516"/>
     <use xlink:href="#DejaVuSans-76" x="179.882812"/>
     <use xlink:href="#DejaVuSans-69" x="239.0625"/>
     <use xlink:href="#DejaVuSans-74" x="266.845703"/>
     <use xlink:href="#DejaVuSans-79" x="306.054688"/>
    </g>
    <!-- return -->
    <g transform="translate(503.883393 207.659687) rotate(-90) scale(0.1 -0.1)">
     <use xlink:href="#DejaVuSans-72"/>
     <use xlink:href="#DejaVuSans-65" x="38.863281"/>
     <use xlink:href="#DejaVuSans-74" x="100.386719"/>
     <use xlink:href="#DejaVuSans-75" x="139.595703"/>
     <use xlink:href="#DejaVuSans-72" x="202.974609"/>
     <use xlink:href="#DejaVuSans-6e" x="242.337891"/>
    </g>
   </g>
   <g id="text_7">
    <!-- Optional turbine -->
    <g style="fill: #065f46" transform="translate(498.24 175.525344) scale(0.1 -0.1)">
     <defs>
      <path id="DejaVuSans-4f" d="M 2522 4238 
Q 1834 4238 1429 3725 
Q 1025 3213 1025 2328 
Q 1025 1447 1429 934 
Q 1834 422 2522 422 
Q 3209 422 3611 934 
Q 4013 1447 4013 2328 
Q 4013 3213 3611 3725 
Q 3209 4238 2522 4238 
z
M 2522 4750 
Q 3503 4750 4090 4092 
Q 4678 3434 4678 2328 
Q 4678 1225 4090 567 
Q 3503 -91 2522 -91 
Q 1538 -91 948 565 
Q 359 1222 359 2328 
Q 359 3434 948 4092 
Q 1538 4750 2522 4750 
z
" transform="scale(0.015625)"/>
      <path id="DejaVuSans-62" d="M 3116 1747 
Q 3116 2381 2855 2742 
Q 2594 3103 2138 3103 
Q 1681 3103 1420 2742 
Q 1159 2381 1159 1747 
Q 1159 1113 1420 752 
Q 1681 391 2138 391 
Q 2594 391 2855 752 
Q 3116 1113 3116 1747 
z
M 1159 2969 
Q 1341 3281 1617 3432 
Q 1894 3584 2278 3584 
Q 2916 3584 3314 3078 
Q 3713 2572 3713 1747 
Q 3713 922 3314 415 
Q 2916 -91 2278 -91 
Q 1894 -91 1617 61 
Q 1341 213 1159 525 
L 1159 0 
L 581 0 
L 581 4863 
L 1159 4863 
L 1159 2969 
z
" transform="scale(0.015625)"/>
     </defs>
     <use xlink:href="#DejaVuSans-4f"/>
     <use xlink:href="#DejaVuSans-70" x="78.710938"/>
     <use xlink:href="#DejaVuSans-74" x="142.1875"/>
     <use xlink:href="#DejaVuSans-69" x="181.396484"/>
     <use xlink:href="#DejaVuSans-6f" x="209.179688"/>
     <use xlink:href="#DejaVuSans-6e" x="270.361328"/>
     <use xlink:href="#DejaVuSans-61" x="333.740234"/>
     <use xlink:href="#DejaVuSans-6c" x="395.019531"/>
     <use xlink:href="#DejaVuSans-20" x="422.802734"/>
     <use xlink:href="#DejaVuSans-74" x="454.589844"/>
     <use xlink:href="#DejaVuSans-75" x="493.798828"/>
     <use xlink:href="#DejaVuSans-72" x="557.177734"/>
     <use xlink:href="#DejaVuSans-62" x="598.291016"/>
     <use xlink:href="#DejaVuSans-69" x="661.767578"/>
     <use xlink:href="#DejaVuSans-6e" x="689.550781"/>
     <use xlink:href="#DejaVuSans-65" x="752.929688"/>
    </g>
   </g>
   <g id="text_8">
    <!-- cold seawater -->
    <g style="fill: #1d4ed8" transform="translate(127.001451 268.804406) scale(0.09 -0.09)">
     <use xlink:href="#DejaVuSans-63"/>
     <use xlink:href="#DejaVuSans-6f" x="54.980469"/>
     <use xlink:href="#DejaVuSans-6c" x="116.162109"/>
     <use xlink:href="#DejaVuSans-64" x="143.945312"/>
     <use xlink:href="#DejaVuSans-20" x="207.421875"/>
     <use xlink:href="#DejaVuSans-73" x="239.208984"/>
     <use xlink:href="#DejaVuSans-65" x="291.308594"/>
     <use xlink:href="#DejaVuSans-61" x="352.832031"/>
     <use xlink:href="#DejaVuSans-77" x="414.111328"/>
     <use xlink:href="#DejaVuSans-61" x="495.898438"/>
     <use xlink:href="#DejaVuSans-74" x="557.177734"/>
     <use xlink:href="#DejaVuSans-65" x="596.386719"/>
     <use xlink:href="#DejaVuSans-72" x="657.910156"/>
    </g>
   </g>
   <g id="text_9">
    <!-- heat absorption -->
    <g style="fill: #b45309" transform="translate(269.720257 183.565406) scale(0.09 -0.09)">
     <use xlink:href="#DejaVuSans-68"/>
     <use xlink:href="#DejaVuSans-65" x="63.378906"/>
     <use xlink:href="#DejaVuSans-61" x="124.902344"/>
     <use xlink:href="#DejaVuSans-74" x="186.181641"/>
     <use xlink:href="#DejaVuSans-20" x="225.390625"/>
     <use xlink:href="#DejaVuSans-61" x="257.177734"/>
     <use xlink:href="#DejaVuSans-62" x="318.457031"/>
     <use xlink:href="#DejaVuSans-73" x="381.933594"/>
     <use xlink:href="#DejaVuSans-6f" x="434.033203"/>
     <use xlink:href="#DejaVuSans-72" x="495.214844"/>
     <use xlink:href="#DejaVuSans-70" x="536.328125"/>
     <use xlink:href="#DejaVuSans-74" x="599.804688"/>
     <use xlink:href="#DejaVuSans-69" x="639.013672"/>
     <use xlink:href="#DejaVuSans-6f" x="666.796875"/>
     <use xlink:href="#DejaVuSans-6e" x="727.978516"/>
    </g>
   </g>
   <g id="text_10">
    <!-- density change -->
    <g style="fill: #2563eb" transform="translate(338.796763 141.104391) scale(0.09 -0.09)">
     <use xlink:href="#DejaVuSans-64"/>
     <use xlink:href="#DejaVuSans-65" x="63.476562"/>
     <use xlink:href="#DejaVuSans-6e" x="125"/>
     <use xlink:href="#DejaVuSans-73" x="188.378906"/>
     <use xlink:href="#DejaVuSans-69" x="240.478516"/>
     <use xlink:href="#DejaVuSans-74" x="268.261719"/>
     <use xlink:href="#DejaVuSans-79" x="307.470703"/>
     <use xlink:href="#DejaVuSans-20" x="366.650391"/>
     <use xlink:href="#DejaVuSans-63" x="398.4375"/>
     <use xlink:href="#DejaVuSans-68" x="453.417969"/>
     <use xlink:href="#DejaVuSans-61" x="516.796875"/>
     <use xlink:href="#DejaVuSans-6e" x="578.076172"/>
     <use xlink:href="#DejaVuSans-67" x="641.455078"/>
     <use xlink:href="#DejaVuSans-65" x="704.931641"/>
    </g>
    <!-- + buoyancy head -->
    <g style="fill: #2563eb" transform="translate(333.548638 151.182422) scale(0.09 -0.09)">
     <defs>
      <path id="DejaVuSans-2b" d="M 2944 4013 
L 2944 2272 
L 4684 2272 
L 4684 1741 
L 2944 1741 
L 2944 0 
L 2419 0 
L 2419 1741 
L 678 1741 
L 678 2272 
L 2419 2272 
L 2419 4013 
L 2944 4013 
z
" transform="scale(0.015625)"/>
     </defs>
     <use xlink:href="#DejaVuSans-2b"/>
     <use xlink:href="#DejaVuSans-20" x="83.789062"/>
     <use xlink:href="#DejaVuSans-62" x="115.576172"/>
     <use xlink:href="#DejaVuSans-75" x="179.052734"/>
     <use xlink:href="#DejaVuSans-6f" x="242.431641"/>
     <use xlink:href="#DejaVuSans-79" x="303.613281"/>
     <use xlink:href="#DejaVuSans-61" x="362.792969"/>
     <use xlink:href="#DejaVuSans-6e" x="424.072266"/>
     <use xlink:href="#DejaVuSans-63" x="487.451172"/>
     <use xlink:href="#DejaVuSans-79" x="542.431641"/>
     <use xlink:href="#DejaVuSans-20" x="601.611328"/>
     <use xlink:href="#DejaVuSans-68" x="633.398438"/>
     <use xlink:href="#DejaVuSans-65" x="696.777344"/>
     <use xlink:href="#DejaVuSans-61" x="758.300781"/>
     <use xlink:href="#DejaVuSans-64" x="819.580078"/>
    </g>
   </g>
   <g id="text_11">
    <!-- elevated discharge -->
    <g style="fill: #1d4ed8" transform="translate(371.977634 83.773406) scale(0.09 -0.09)">
     <use xlink:href="#DejaVuSans-65"/>
     <use xlink:href="#DejaVuSans-6c" x="61.523438"/>
     <use xlink:href="#DejaVuSans-65" x="89.306641"/>
     <use xlink:href="#DejaVuSans-76" x="150.830078"/>
     <use xlink:href="#DejaVuSans-61" x="210.009766"/>
     <use xlink:href="#DejaVuSans-74" x="271.289062"/>
     <use xlink:href="#DejaVuSans-65" x="310.498047"/>
     <use xlink:href="#DejaVuSans-64" x="372.021484"/>
     <use xlink:href="#DejaVuSans-20" x="435.498047"/>
     <use xlink:href="#DejaVuSans-64" x="467.285156"/>
     <use xlink:href="#DejaVuSans-69" x="530.761719"/>
     <use xlink:href="#DejaVuSans-73" x="558.544922"/>
     <use xlink:href="#DejaVuSans-63" x="610.644531"/>
     <use xlink:href="#DejaVuSans-68" x="665.625"/>
     <use xlink:href="#DejaVuSans-61" x="729.003906"/>
     <use xlink:href="#DejaVuSans-72" x="790.283203"/>
     <use xlink:href="#DejaVuSans-67" x="829.646484"/>
     <use xlink:href="#DejaVuSans-65" x="893.123047"/>
    </g>
   </g>
   <g id="text_12">
    <!-- gravity return -->
    <g style="fill: #0891b2" transform="translate(394.906942 191.881406) scale(0.09 -0.09)">
     <use xlink:href="#DejaVuSans-67"/>
     <use xlink:href="#DejaVuSans-72" x="63.476562"/>
     <use xlink:href="#DejaVuSans-61" x="104.589844"/>
     <use xlink:href="#DejaVuSans-76" x="165.869141"/>
     <use xlink:href="#DejaVuSans-69" x="225.048828"/>
     <use xlink:href="#DejaVuSans-74" x="252.832031"/>
     <use xlink:href="#DejaVuSans-79" x="292.041016"/>
     <use xlink:href="#DejaVuSans-20" x="351.220703"/>
     <use xlink:href="#DejaVuSans-72" x="383.007812"/>
     <use xlink:href="#DejaVuSans-65" x="421.871094"/>
     <use xlink:href="#DejaVuSans-74" x="483.394531"/>
     <use xlink:href="#DejaVuSans-75" x="522.603516"/>
     <use xlink:href="#DejaVuSans-72" x="585.982422"/>
     <use xlink:href="#DejaVuSans-6e" x="625.345703"/>
    </g>
   </g>
   <g id="text_13">
    <!-- Figure 1. Hydra-Cool system architecture schematic -->
    <g style="fill: #0f172a" transform="translate(7.2 17.077969) scale(0.13 -0.13)">
     <defs>
      <path id="DejaVuSans-Bold-46" d="M 588 4666 
L 3834 4666 
L 3834 3756 
L 1791 3756 
L 1791 2888 
L 3713 2888 
L 3713 1978 
L 1791 1978 
L 1791 0 
L 588 0 
L 588 4666 
z
" transform="scale(0.015625)"/>
      <path id="DejaVuSans-Bold-69" d="M 538 3500 
L 1656 3500 
L 1656 0 
L 538 0 
L 538 3500 
z
M 538 4863 
L 1656 4863 
L 1656 3950 
L 538 3950 
L 538 4863 
z
" transform="scale(0.015625)"/>
      <path id="DejaVuSans-Bold-67" d="M 2919 594 
Q 2688 288 2409 144 
Q 2131 0 1766 0 
Q 1125 0 706 504 
Q 288 1009 288 1791 
Q 288 2575 706 3076 
Q 1125 3578 1766 3578 
Q 2131 3578 2409 3434 
Q 2688 3291 2919 2981 
L 2919 3500 
L 4044 3500 
L 4044 353 
Q 4044 -491 3511 -936 
Q 2978 -1381 1966 -1381 
Q 1638 -1381 1331 -1331 
Q 1025 -1281 716 -1178 
L 716 -306 
Q 1009 -475 1290 -558 
Q 1572 -641 1856 -641 
Q 2406 -641 2662 -400 
Q 2919 -159 2919 353 
L 2919 594 
z
M 2181 2772 
Q 1834 2772 1640 2515 
Q 1447 2259 1447 1791 
Q 1447 1309 1634 1061 
Q 1822 813 2181 813 
Q 2531 813 2725 1069 
Q 2919 1325 2919 1791 
Q 2919 2259 2725 2515 
Q 2531 2772 2181 2772 
z
" transform="scale(0.015625)"/>
      <path id="DejaVuSans-Bold-75" d="M 500 1363 
L 500 3500 
L 1625 3500 
L 1625 3150 
Q 1625 2866 1622 2436 
Q 1619 2006 1619 1863 
Q 1619 1441 1641 1255 
Q 1663 1069 1716 984 
Q 1784 875 1895 815 
Q 2006 756 2150 756 
Q 2500 756 2700 1025 
Q 2900 1294 2900 1772 
L 2900 3500 
L 4019 3500 
L 4019 0 
L 2900 0 
L 2900 506 
Q 2647 200 2364 54 
Q 2081 -91 1741 -91 
Q 1134 -91 817 281 
Q 500 653 500 1363 
z
" transform="scale(0.015625)"/>
      <path id="DejaVuSans-Bold-72" d="M 3138 2547 
Q 2991 2616 2845 2648 
Q 2700 2681 2553 2681 
Q 2122 2681 1889 2404 
Q 1656 2128 1656 1613 
L 1656 0 
L 538 0 
L 538 3500 
L 1656 3500 
L 1656 2925 
Q 1872 3269 2151 3426 
Q 2431 3584 2822 3584 
Q 2878 3584 2943 3579 
Q 3009 3575 3134 3559 
L 3138 2547 
z
" transform="scale(0.015625)"/>
      <path id="DejaVuSans-Bold-65" d="M 4031 1759 
L 4031 1441 
L 1416 1441 
Q 1456 1047 1700 850 
Q 1944 653 2381 653 
Q 2734 653 3104 758 
Q 3475 863 3866 1075 
L 3866 213 
Q 3469 63 3072 -14 
Q 2675 -91 2278 -91 
Q 1328 -91 801 392 
Q 275 875 275 1747 
Q 275 2603 792 3093 
Q 1309 3584 2216 3584 
Q 3041 3584 3536 3087 
Q 4031 2591 4031 1759 
z
M 2881 2131 
Q 2881 2450 2695 2645 
Q 2509 2841 2209 2841 
Q 1884 2841 1681 2658 
Q 1478 2475 1428 2131 
L 2881 2131 
z
" transform="scale(0.015625)"/>
      <path id="DejaVuSans-Bold-20" transform="scale(0.015625)"/>
      <path id="DejaVuSans-Bold-31" d="M 750 831 
L 1813 831 
L 1813 3847 
L 722 3622 
L 722 4441 
L 1806 4666 
L 2950 4666 
L 2950 831 
L 4013 831 
L 4013 0 
L 750 0 
L 750 831 
z
" transform="scale(0.015625)"/>
      <path id="DejaVuSans-Bold-2e" d="M 653 1209 
L 1778 1209 
L 1778 0 
L 653 0 
L 653 1209 
z
" transform="scale(0.015625)"/>
      <path id="DejaVuSans-Bold-48" d="M 588 4666 
L 1791 4666 
L 1791 2888 
L 3566 2888 
L 3566 4666 
L 4769 4666 
L 4769 0 
L 3566 0 
L 3566 1978 
L 1791 1978 
L 1791 0 
L 588 0 
L 588 4666 
z
" transform="scale(0.015625)"/>
      <path id="DejaVuSans-Bold-79" d="M 78 3500 
L 1197 3500 
L 2138 1125 
L 2938 3500 
L 4056 3500 
L 2584 -331 
Q 2363 -916 2067 -1148 
Q 1772 -1381 1288 -1381 
L 641 -1381 
L 641 -647 
L 991 -647 
Q 1275 -647 1404 -556 
Q 1534 -466 1606 -231 
L 1638 -134 
L 78 3500 
z
" transform="scale(0.015625)"/>
      <path id="DejaVuSans-Bold-64" d="M 2919 2988 
L 2919 4863 
L 4044 4863 
L 4044 0 
L 2919 0 
L 2919 506 
Q 2688 197 2409 53 
Q 2131 -91 1766 -91 
Q 1119 -91 703 423 
Q 288 938 288 1747 
Q 288 2556 703 3070 
Q 1119 3584 1766 3584 
Q 2128 3584 2408 3439 
Q 2688 3294 2919 2988 
z
M 2181 722 
Q 2541 722 2730 984 
Q 2919 1247 2919 1747 
Q 2919 2247 2730 2509 
Q 2541 2772 2181 2772 
Q 1825 2772 1636 2509 
Q 1447 2247 1447 1747 
Q 1447 1247 1636 984 
Q 1825 722 2181 722 
z
" transform="scale(0.015625)"/>
      <path id="DejaVuSans-Bold-61" d="M 2106 1575 
Q 1756 1575 1579 1456 
Q 1403 1338 1403 1106 
Q 1403 894 1545 773 
Q 1688 653 1941 653 
Q 2256 653 2472 879 
Q 2688 1106 2688 1447 
L 2688 1575 
L 2106 1575 
z
M 3816 1997 
L 3816 0 
L 2688 0 
L 2688 519 
Q 2463 200 2181 54 
Q 1900 -91 1497 -91 
Q 953 -91 614 226 
Q 275 544 275 1050 
Q 275 1666 698 1953 
Q 1122 2241 2028 2241 
L 2688 2241 
L 2688 2328 
Q 2688 2594 2478 2717 
Q 2269 2841 1825 2841 
Q 1466 2841 1156 2769 
Q 847 2697 581 2553 
L 581 3406 
Q 941 3494 1303 3539 
Q 1666 3584 2028 3584 
Q 2975 3584 3395 3211 
Q 3816 2838 3816 1997 
z
" transform="scale(0.015625)"/>
      <path id="DejaVuSans-Bold-2d" d="M 347 2297 
L 2309 2297 
L 2309 1388 
L 347 1388 
L 347 2297 
z
" transform="scale(0.015625)"/>
      <path id="DejaVuSans-Bold-43" d="M 4288 256 
Q 3956 84 3597 -3 
Q 3238 -91 2847 -91 
Q 1681 -91 1000 561 
Q 319 1213 319 2328 
Q 319 3447 1000 4098 
Q 1681 4750 2847 4750 
Q 3238 4750 3597 4662 
Q 3956 4575 4288 4403 
L 4288 3438 
Q 3953 3666 3628 3772 
Q 3303 3878 2944 3878 
Q 2300 3878 1931 3465 
Q 1563 3053 1563 2328 
Q 1563 1606 1931 1193 
Q 2300 781 2944 781 
Q 3303 781 3628 887 
Q 3953 994 4288 1222 
L 4288 256 
z
" transform="scale(0.015625)"/>
      <path id="DejaVuSans-Bold-6f" d="M 2203 2784 
Q 1831 2784 1636 2517 
Q 1441 2250 1441 1747 
Q 1441 1244 1636 976 
Q 1831 709 2203 709 
Q 2569 709 2762 976 
Q 2956 1244 2956 1747 
Q 2956 2250 2762 2517 
Q 2569 2784 2203 2784 
z
M 2203 3584 
Q 3106 3584 3614 3096 
Q 4122 2609 4122 1747 
Q 4122 884 3614 396 
Q 3106 -91 2203 -91 
Q 1297 -91 786 396 
Q 275 884 275 1747 
Q 275 2609 786 3096 
Q 1297 3584 2203 3584 
z
" transform="scale(0.015625)"/>
      <path id="DejaVuSans-Bold-6c" d="M 538 4863 
L 1656 4863 
L 1656 0 
L 538 0 
L 538 4863 
z
" transform="scale(0.015625)"/>
      <path id="DejaVuSans-Bold-73" d="M 3272 3391 
L 3272 2541 
Q 2913 2691 2578 2766 
Q 2244 2841 1947 2841 
Q 1628 2841 1473 2761 
Q 1319 2681 1319 2516 
Q 1319 2381 1436 2309 
Q 1553 2238 1856 2203 
L 2053 2175 
Q 2913 2066 3209 1816 
Q 3506 1566 3506 1031 
Q 3506 472 3093 190 
Q 2681 -91 1863 -91 
Q 1516 -91 1145 -36 
Q 775 19 384 128 
L 384 978 
Q 719 816 1070 734 
Q 1422 653 1784 653 
Q 2113 653 2278 743 
Q 2444 834 2444 1013 
Q 2444 1163 2330 1236 
Q 2216 1309 1875 1350 
L 1678 1375 
Q 931 1469 631 1722 
Q 331 1975 331 2491 
Q 331 3047 712 3315 
Q 1094 3584 1881 3584 
Q 2191 3584 2531 3537 
Q 2872 3491 3272 3391 
z
" transform="scale(0.015625)"/>
      <path id="DejaVuSans-Bold-74" d="M 1759 4494 
L 1759 3500 
L 2913 3500 
L 2913 2700 
L 1759 2700 
L 1759 1216 
Q 1759 972 1856 886 
Q 1953 800 2241 800 
L 2816 800 
L 2816 0 
L 1856 0 
Q 1194 0 917 276 
Q 641 553 641 1216 
L 641 2700 
L 84 2700 
L 84 3500 
L 641 3500 
L 641 4494 
L 1759 4494 
z
" transform="scale(0.015625)"/>
      <path id="DejaVuSans-Bold-6d" d="M 3781 2919 
Q 3994 3244 4286 3414 
Q 4578 3584 4928 3584 
Q 5531 3584 5847 3212 
Q 6163 2841 6163 2131 
L 6163 0 
L 5038 0 
L 5038 1825 
Q 5041 1866 5042 1909 
Q 5044 1953 5044 2034 
Q 5044 2406 4934 2573 
Q 4825 2741 4581 2741 
Q 4263 2741 4089 2478 
Q 3916 2216 3909 1719 
L 3909 0 
L 2784 0 
L 2784 1825 
Q 2784 2406 2684 2573 
Q 2584 2741 2328 2741 
Q 2006 2741 1831 2477 
Q 1656 2213 1656 1722 
L 1656 0 
L 531 0 
L 531 3500 
L 1656 3500 
L 1656 2988 
Q 1863 3284 2130 3434 
Q 2397 3584 2719 3584 
Q 3081 3584 3359 3409 
Q 3638 3234 3781 2919 
z
" transform="scale(0.015625)"/>
      <path id="DejaVuSans-Bold-63" d="M 3366 3391 
L 3366 2478 
Q 3138 2634 2908 2709 
Q 2678 2784 2431 2784 
Q 1963 2784 1702 2511 
Q 1441 2238 1441 1747 
Q 1441 1256 1702 982 
Q 1963 709 2431 709 
Q 2694 709 2930 787 
Q 3166 866 3366 1019 
L 3366 103 
Q 3103 6 2833 -42 
Q 2563 -91 2291 -91 
Q 1344 -91 809 395 
Q 275 881 275 1747 
Q 275 2613 809 3098 
Q 1344 3584 2291 3584 
Q 2566 3584 2833 3536 
Q 3100 3488 3366 3391 
z
" transform="scale(0.015625)"/>
      <path id="DejaVuSans-Bold-68" d="M 4056 2131 
L 4056 0 
L 2931 0 
L 2931 347 
L 2931 1625 
Q 2931 2084 2911 2256 
Q 2891 2428 2841 2509 
Q 2775 2619 2662 2680 
Q 2550 2741 2406 2741 
Q 2056 2741 1856 2470 
Q 1656 2200 1656 1722 
L 1656 0 
L 538 0 
L 538 4863 
L 1656 4863 
L 1656 2988 
Q 1909 3294 2193 3439 
Q 2478 3584 2822 3584 
Q 3428 3584 3742 3212 
Q 4056 2841 4056 2131 
z
" transform="scale(0.015625)"/>
     </defs>
     <use xlink:href="#DejaVuSans-Bold-46"/>
     <use xlink:href="#DejaVuSans-Bold-69" x="68.310547"/>
     <use xlink:href="#DejaVuSans-Bold-67" x="102.587891"/>
     <use xlink:href="#DejaVuSans-Bold-75" x="174.169922"/>
     <use xlink:href="#DejaVuSans-Bold-72" x="245.361328"/>
     <use xlink:href="#DejaVuSans-Bold-65" x="294.677734"/>
     <use xlink:href="#DejaVuSans-Bold-20" x="362.5"/>
     <use xlink:href="#DejaVuSans-Bold-31" x="397.314453"/>
     <use xlink:href="#DejaVuSans-Bold-2e" x="466.894531"/>
     <use xlink:href="#DejaVuSans-Bold-20" x="504.882812"/>
     <use xlink:href="#DejaVuSans-Bold-48" x="539.697266"/>
     <use xlink:href="#DejaVuSans-Bold-79" x="623.388672"/>
     <use xlink:href="#DejaVuSans-Bold-64" x="688.574219"/>
     <use xlink:href="#DejaVuSans-Bold-72" x="760.15625"/>
     <use xlink:href="#DejaVuSans-Bold-61" x="809.472656"/>
     <use xlink:href="#DejaVuSans-Bold-2d" x="876.953125"/>
     <use xlink:href="#DejaVuSans-Bold-43" x="918.457031"/>
     <use xlink:href="#DejaVuSans-Bold-6f" x="991.845703"/>
     <use xlink:href="#DejaVuSans-Bold-6f" x="1060.546875"/>
     <use xlink:href="#DejaVuSans-Bold-6c" x="1129.248047"/>
     <use xlink:href="#DejaVuSans-Bold-20" x="1163.525391"/>
     <use xlink:href="#DejaVuSans-Bold-73" x="1198.339844"/>
     <use xlink:href="#DejaVuSans-Bold-79" x="1257.861328"/>
     <use xlink:href="#DejaVuSans-Bold-73" x="1323.046875"/>
     <use xlink:href="#DejaVuSans-Bold-74" x="1382.568359"/>
     <use xlink:href="#DejaVuSans-Bold-65" x="1430.371094"/>
     <use xlink:href="#DejaVuSans-Bold-6d" x="1498.193359"/>
     <use xlink:href="#DejaVuSans-Bold-20" x="1602.392578"/>
     <use xlink:href="#DejaVuSans-Bold-61" x="1637.207031"/>
     <use xlink:href="#DejaVuSans-Bold-72" x="1704.6875"/>
     <use xlink:href="#DejaVuSans-Bold-63" x="1754.003906"/>
     <use xlink:href="#DejaVuSans-Bold-68" x="1813.28125"/>
     <use xlink:href="#DejaVuSans-Bold-69" x="1884.472656"/>
     <use xlink:href="#DejaVuSans-Bold-74" x="1918.75"/>
     <use xlink:href="#DejaVuSans-Bold-65" x="1966.552734"/>
     <use xlink:href="#DejaVuSans-Bold-63" x="2034.375"/>
     <use xlink:href="#DejaVuSans-Bold-74" x="2093.652344"/>
     <use xlink:href="#DejaVuSans-Bold-75" x="2141.455078"/>
     <use xlink:href="#DejaVuSans-Bold-72" x="2212.646484"/>
     <use xlink:href="#DejaVuSans-Bold-65" x="2261.962891"/>
     <use xlink:href="#DejaVuSans-Bold-20" x="2329.785156"/>
     <use xlink:href="#DejaVuSans-Bold-73" x="2364.599609"/>
     <use xlink:href="#DejaVuSans-Bold-63" x="2424.121094"/>
     <use xlink:href="#DejaVuSans-Bold-68" x="2483.398438"/>
     <use xlink:href="#DejaVuSans-Bold-65" x="2554.589844"/>
     <use xlink:href="#DejaVuSans-Bold-6d" x="2622.412109"/>
     <use xlink:href="#DejaVuSans-Bold-61" x="2726.611328"/>
     <use xlink:href="#DejaVuSans-Bold-74" x="2794.091797"/>
     <use xlink:href="#DejaVuSans-Bold-69" x="2841.894531"/>
     <use xlink:href="#DejaVuSans-Bold-63" x="2876.171875"/>
    </g>
   </g>
  </g>
 </g>
 <defs>
  <clipPath id="p1eec25ff6d">
   <rect x="7.2" y="23.077969" width="613.8" height="332.64"/>
  </clipPath>
 </defs>
</svg>
