<?xml version="1.0" encoding="utf-8" standalone="no"?>
<!DOCTYPE svg PUBLIC "-//W3C//DTD SVG 1.1//EN"
  "http://www.w3.org/Graphics/SVG/1.1/DTD/svg11.dtd">
<svg xmlns:xlink="http://www.w3.org/1999/xlink" width="595.412537pt" height="415.450219pt" viewBox="0 0 595.412537 415.450219" xmlns="http://www.w3.org/2000/svg" version="1.1">
 <metadata>
  <rdf:RDF xmlns:dc="http://purl.org/dc/elements/1.1/" xmlns:cc="http://creativecommons.org/ns#" xmlns:rdf="http://www.w3.org/1999/02/22-rdf-syntax-ns#">
   <cc:Work>
    <dc:type rdf:resource="http://purl.org/dc/dcmitype/StillImage"/>
    <dc:date>2026-03-13T12:04:48.022187</dc:date>
    <dc:format>image/svg+xml</dc:format>
    <dc:creator>
     <cc:Agent>
      <dc:title>Matplotlib v3.9.4, https://matplotlib.org/</dc:title>
     </cc:Agent>
    </dc:creator>
   </cc:Work>
  </rdf:RDF>
 </metadata>
 <defs>
  <style type="text/css">*{stroke-linejoin: round; stroke-linecap: butt}</style>
 </defs>
 <g id="figure_1">
  <g id="patch_1">
   <path d="M 0 415.450219 
L 595.412537 415.450219 
L 595.412537 0 
L 0 0 
z
" style="fill: #ffffff"/>
  </g>
  <g id="axes_1">
   <g id="patch_2">
    <path d="M 43.78125 377.893969 
L 534.82125 377.893969 
L 534.82125 23.077969 
L 43.78125 23.077969 
z
" style="fill: #ffffff"/>
   </g>
   <g id="matplotlib.axis_1">
    <g id="xtick_1">
     <g id="line2d_1">
      <defs>
       <path id="mb4acb290f7" d="M 0 0 
L 0 3.5 
" style="stroke: #334155; stroke-width: 0.8"/>
      </defs>
      <g>
       <use xlink:href="#mb4acb290f7" x="43.78125" y="377.893969" style="fill: #334155; stroke: #334155; stroke-width: 0.8"/>
      </g>
     </g>
     <g id="text_1">
      <!-- 0.0 -->
      <g style="fill: #334155" transform="translate(35.829688 392.492406) scale(0.1 -0.1)">
       <defs>
        <path id="DejaVuSans-30" d="M 2034 4250 
Q 1547 4250 1301 3770 
Q 1056 3291 1056 2328 
Q 1056 1369 1301 889 
Q 1547 409 2034 409 
Q 2525 409 2770 889 
Q 3016 1369 3016 2328 
Q 3016 3291 2770 3770 
Q 2525 4250 2034 4250 
z
M 2034 4750 
Q 2819 4750 3233 4129 
Q 3647 3509 3647 2328 
Q 3647 1150 3233 529 
Q 2819 -91 2034 -91 
Q 1250 -91 836 529 
Q 422 1150 422 2328 
Q 422 3509 836 4129 
Q 1250 4750 2034 4750 
z
" transform="scale(0.015625)"/>
        <path id="DejaVuSans-2e" d="M 684 794 
L 1344 794 
L 1344 0 
L 684 0 
L 684 794 
z
" transform="scale(0.015625)"/>
       </defs>
       <use xlink:href="#DejaVuSans-30"/>
       <use xlink:href="#DejaVuSans-2e" x="63.623047"/>
       <use xlink:href="#DejaVuSans-30" x="95.410156"/>
      </g>
     </g>
    </g>
    <g id="xtick_2">
     <g id="line2d_2">
      <g>
       <use xlink:href="#mb4acb290f7" x="140.063603" y="377.893969" style="fill: #334155; stroke: #334155; stroke-width: 0.8"/>
      </g>
     </g>
     <g id="text_2">
      <!-- 0.2 -->
      <g style="fill: #334155" transform="translate(132.11204 392.492406) scale(0.1 -0.1)">
       <defs>
        <path id="DejaVuSans-32" d="M 1228 531 
L 3431 531 
L 3431 0 
L 469 0 
L 469 531 
Q 828 903 1448 1529 
Q 2069 2156 2228 2338 
Q 2531 2678 2651 2914 
Q 2772 3150 2772 3378 
Q 2772 3750 2511 3984 
Q 2250 4219 1831 4219 
Q 1534 4219 1204 4116 
Q 875 4013 500 3803 
L 500 4441 
Q 881 4594 1212 4672 
Q 1544 4750 1819 4750 
Q 2544 4750 2975 4387 
Q 3406 4025 3406 3419 
Q 3406 3131 3298 2873 
Q 3191 2616 2906 2266 
Q 2828 2175 2409 1742 
Q 1991 1309 1228 531 
z
" transform="scale(0.015625)"/>
       </defs>
       <use xlink:href="#DejaVuSans-30"/>
       <use xlink:href="#DejaVuSans-2e" x="63.623047"/>
       <use xlink:href="#DejaVuSans-32" x="95.410156"/>
      </g>
     </g>
    </g>
    <g id="xtick_3">
     <g id="line2d_3">
      <g>
       <use xlink:href="#mb4acb290f7" x="236.345956" y="377.893969" style="fill: #334155; stroke: #334155; stroke-width: 0.8"/>
      </g>
     </g>
     <g id="text_3">
      <!-- 0.4 -->
      <g style="fill: #334155" transform="translate(228.394393 392.492406) scale(0.1 -0.1)">
       <defs>
        <path id="DejaVuSans-34" d="M 2419 4116 
L 825 1625 
L 2419 1625 
L 2419 4116 
z
M 2253 4666 
L 3047 4666 
L 3047 1625 
L 3713 1625 
L 3713 1100 
L 3047 1100 
L 3047 0 
L 2419 0 
L 2419 1100 
L 313 1100 
L 313 1709 
L 2253 4666 
z
" transform="scale(0.015625)"/>
       </defs>
       <use xlink:href="#DejaVuSans-30"/>
       <use xlink:href="#DejaVuSans-2e" x="63.623047"/>
       <use xlink:href="#DejaVuSans-34" x="95.410156"/>
      </g>
     </g>
    </g>
    <g id="xtick_4">
     <g id="line2d_4">
      <g>
       <use xlink:href="#mb4acb290f7" x="332.628309" y="377.893969" style="fill: #334155; stroke: #334155; stroke-width: 0.8"/>
      </g>
     </g>
     <g id="text_4">
      <!-- 0.6 -->
      <g style="fill: #334155" transform="translate(324.676746 392.492406) scale(0.1 -0.1)">
       <defs>
        <path id="DejaVuSans-36" d="M 2113 2584 
Q 1688 2584 1439 2293 
Q 1191 2003 1191 1497 
Q 1191 994 1439 701 
Q 1688 409 2113 409 
Q 2538 409 2786 701 
Q 3034 994 3034 1497 
Q 3034 2003 2786 2293 
Q 2538 2584 2113 2584 
z
M 3366 4563 
L 3366 3988 
Q 3128 4100 2886 4159 
Q 2644 4219 2406 4219 
Q 1781 4219 1451 3797 
Q 1122 3375 1075 2522 
Q 1259 2794 1537 2939 
Q 1816 3084 2150 3084 
Q 2853 3084 3261 2657 
Q 3669 2231 3669 1497 
Q 3669 778 3244 343 
Q 2819 -91 2113 -91 
Q 1303 -91 875 529 
Q 447 1150 447 2328 
Q 447 3434 972 4092 
Q 1497 4750 2381 4750 
Q 2619 4750 2861 4703 
Q 3103 4656 3366 4563 
z
" transform="scale(0.015625)"/>
       </defs>
       <use xlink:href="#DejaVuSans-30"/>
       <use xlink:href="#DejaVuSans-2e" x="63.623047"/>
       <use xlink:href="#DejaVuSans-36" x="95.410156"/>
      </g>
     </g>
    </g>
    <g id="xtick_5">
     <g id="line2d_5">
      <g>
       <use xlink:href="#mb4acb290f7" x="428.910662" y="377.893969" style="fill: #334155; stroke: #334155; stroke-width: 0.8"/>
      </g>
     </g>
     <g id="text_5">
      <!-- 0.8 -->
      <g style="fill: #334155" transform="translate(420.959099 392.492406) scale(0.1 -0.1)">
       <defs>
        <path id="DejaVuSans-38" d="M 2034 2216 
Q 1584 2216 1326 1975 
Q 1069 1734 1069 1313 
Q 1069 891 1326 650 
Q 1584 409 2034 409 
Q 2484 409 2743 651 
Q 3003 894 3003 1313 
Q 3003 1734 2745 1975 
Q 2488 2216 2034 2216 
z
M 1403 2484 
Q 997 2584 770 2862 
Q 544 3141 544 3541 
Q 544 4100 942 4425 
Q 1341 4750 2034 4750 
Q 2731 4750 3128 4425 
Q 3525 4100 3525 3541 
Q 3525 3141 3298 2862 
Q 3072 2584 2669 2484 
Q 3125 2378 3379 2068 
Q 3634 1759 3634 1313 
Q 3634 634 3220 271 
Q 2806 -91 2034 -91 
Q 1263 -91 848 271 
Q 434 634 434 1313 
Q 434 1759 690 2068 
Q 947 2378 1403 2484 
z
M 1172 3481 
Q 1172 3119 1398 2916 
Q 1625 2713 2034 2713 
Q 2441 2713 2670 2916 
Q 2900 3119 2900 3481 
Q 2900 3844 2670 4047 
Q 2441 4250 2034 4250 
Q 1625 4250 1398 4047 
Q 1172 3844 1172 3481 
z
" transform="scale(0.015625)"/>
       </defs>
       <use xlink:href="#DejaVuSans-30"/>
       <use xlink:href="#DejaVuSans-2e" x="63.623047"/>
       <use xlink:href="#DejaVuSans-38" x="95.410156"/>
      </g>
     </g>
    </g>
    <g id="xtick_6">
     <g id="line2d_6">
      <g>
       <use xlink:href="#mb4acb290f7" x="525.193015" y="377.893969" style="fill: #334155; stroke: #334155; stroke-width: 0.8"/>
      </g>
     </g>
     <g id="text_6">
      <!-- 1.0 -->
      <g style="fill: #334155" transform="translate(517.241452 392.492406) scale(0.1 -0.1)">
       <defs>
        <path id="DejaVuSans-31" d="M 794 531 
L 1825 531 
L 1825 4091 
L 703 3866 
L 703 4441 
L 1819 4666 
L 2450 4666 
L 2450 531 
L 3481 531 
L 3481 0 
L 794 0 
L 794 531 
z
" transform="scale(0.015625)"/>
       </defs>
       <use xlink:href="#DejaVuSans-31"/>
       <use xlink:href="#DejaVuSans-2e" x="63.623047"/>
       <use xlink:href="#DejaVuSans-30" x="95.410156"/>
      </g>
     </g>
    </g>
    <g id="text_7">
     <!-- Dependence on active pumping (0 = low, 1 = high) -->
     <g style="fill: #0f172a" transform="translate(160.191094 406.170531) scale(0.1 -0.1)">
      <defs>
       <path id="DejaVuSans-44" d="M 1259 4147 
L 1259 519 
L 2022 519 
Q 2988 519 3436 956 
Q 3884 1394 3884 2338 
Q 3884 3275 3436 3711 
Q 2988 4147 2022 4147 
L 1259 4147 
z
M 628 4666 
L 1925 4666 
Q 3281 4666 3915 4102 
Q 4550 3538 4550 2338 
Q 4550 1131 3912 565 
Q 3275 0 1925 0 
L 628 0 
L 628 4666 
z
" transform="scale(0.015625)"/>
       <path id="DejaVuSans-65" d="M 3597 1894 
L 3597 1613 
L 953 1613 
Q 991 1019 1311 708 
Q 1631 397 2203 397 
Q 2534 397 2845 478 
Q 3156 559 3463 722 
L 3463 178 
Q 3153 47 2828 -22 
Q 2503 -91 2169 -91 
Q 1331 -91 842 396 
Q 353 884 353 1716 
Q 353 2575 817 3079 
Q 1281 3584 2069 3584 
Q 2775 3584 3186 3129 
Q 3597 2675 3597 1894 
z
M 3022 2063 
Q 3016 2534 2758 2815 
Q 2500 3097 2075 3097 
Q 1594 3097 1305 2825 
Q 1016 2553 972 2059 
L 3022 2063 
z
" transform="scale(0.015625)"/>
       <path id="DejaVuSans-70" d="M 1159 525 
L 1159 -1331 
L 581 -1331 
L 581 3500 
L 1159 3500 
L 1159 2969 
Q 1341 3281 1617 3432 
Q 1894 3584 2278 3584 
Q 2916 3584 3314 3078 
Q 3713 2572 3713 1747 
Q 3713 922 3314 415 
Q 2916 -91 2278 -91 
Q 1894 -91 1617 61 
Q 1341 213 1159 525 
z
M 3116 1747 
Q 3116 2381 2855 2742 
Q 2594 3103 2138 3103 
Q 1681 3103 1420 2742 
Q 1159 2381 1159 1747 
Q 1159 1113 1420 752 
Q 1681 391 2138 391 
Q 2594 391 2855 752 
Q 3116 1113 3116 1747 
z
" transform="scale(0.015625)"/>
       <path id="DejaVuSans-6e" d="M 3513 2113 
L 3513 0 
L 2938 0 
L 2938 2094 
Q 2938 2591 2744 2837 
Q 2550 3084 2163 3084 
Q 1697 3084 1428 2787 
Q 1159 2491 1159 1978 
L 1159 0 
L 581 0 
L 581 3500 
L 1159 3500 
L 1159 2956 
Q 1366 3272 1645 3428 
Q 1925 3584 2291 3584 
Q 2894 3584 3203 3211 
Q 3513 2838 3513 2113 
z
" transform="scale(0.015625)"/>
       <path id="DejaVuSans-64" d="M 2906 2969 
L 2906 4863 
L 3481 4863 
L 3481 0 
L 2906 0 
L 2906 525 
Q 2725 213 2448 61 
Q 2172 -91 1784 -91 
Q 1150 -91 751 415 
Q 353 922 353 1747 
Q 353 2572 751 3078 
Q 1150 3584 1784 3584 
Q 2172 3584 2448 3432 
Q 2725 3281 2906 2969 
z
M 947 1747 
Q 947 1113 1208 752 
Q 1469 391 1925 391 
Q 2381 391 2643 752 
Q 2906 1113 2906 1747 
Q 2906 2381 2643 2742 
Q 2381 3103 1925 3103 
Q 1469 3103 1208 2742 
Q 947 2381 947 1747 
z
" transform="scale(0.015625)"/>
       <path id="DejaVuSans-63" d="M 3122 3366 
L 3122 2828 
Q 2878 2963 2633 3030 
Q 2388 3097 2138 3097 
Q 1578 3097 1268 2742 
Q 959 2388 959 1747 
Q 959 1106 1268 751 
Q 1578 397 2138 397 
Q 2388 397 2633 464 
Q 2878 531 3122 666 
L 3122 134 
Q 2881 22 2623 -34 
Q 2366 -91 2075 -91 
Q 1284 -91 818 406 
Q 353 903 353 1747 
Q 353 2603 823 3093 
Q 1294 3584 2113 3584 
Q 2378 3584 2631 3529 
Q 2884 3475 3122 3366 
z
" transform="scale(0.015625)"/>
       <path id="DejaVuSans-20" transform="scale(0.015625)"/>
       <path id="DejaVuSans-6f" d="M 1959 3097 
Q 1497 3097 1228 2736 
Q 959 2375 959 1747 
Q 959 1119 1226 758 
Q 1494 397 1959 397 
Q 2419 397 2687 759 
Q 2956 1122 2956 1747 
Q 2956 2369 2687 2733 
Q 2419 3097 1959 3097 
z
M 1959 3584 
Q 2709 3584 3137 3096 
Q 3566 2609 3566 1747 
Q 3566 888 3137 398 
Q 2709 -91 1959 -91 
Q 1206 -91 779 398 
Q 353 888 353 1747 
Q 353 2609 779 3096 
Q 1206 3584 1959 3584 
z
" transform="scale(0.015625)"/>
       <path id="DejaVuSans-61" d="M 2194 1759 
Q 1497 1759 1228 1600 
Q 959 1441 959 1056 
Q 959 750 1161 570 
Q 1363 391 1709 391 
Q 2188 391 2477 730 
Q 2766 1069 2766 1631 
L 2766 1759 
L 2194 1759 
z
M 3341 1997 
L 3341 0 
L 2766 0 
L 2766 531 
Q 2569 213 2275 61 
Q 1981 -91 1556 -91 
Q 1019 -91 701 211 
Q 384 513 384 1019 
Q 384 1609 779 1909 
Q 1175 2209 1959 2209 
L 2766 2209 
L 2766 2266 
Q 2766 2663 2505 2880 
Q 2244 3097 1772 3097 
Q 1472 3097 1187 3025 
Q 903 2953 641 2809 
L 641 3341 
Q 956 3463 1253 3523 
Q 1550 3584 1831 3584 
Q 2591 3584 2966 3190 
Q 3341 2797 3341 1997 
z
" transform="scale(0.015625)"/>
       <path id="DejaVuSans-74" d="M 1172 4494 
L 1172 3500 
L 2356 3500 
L 2356 3053 
L 1172 3053 
L 1172 1153 
Q 1172 725 1289 603 
Q 1406 481 1766 481 
L 2356 481 
L 2356 0 
L 1766 0 
Q 1100 0 847 248 
Q 594 497 594 1153 
L 594 3053 
L 172 3053 
L 172 3500 
L 594 3500 
L 594 4494 
L 1172 4494 
z
" transform="scale(0.015625)"/>
       <path id="DejaVuSans-69" d="M 603 3500 
L 1178 3500 
L 1178 0 
L 603 0 
L 603 3500 
z
M 603 4863 
L 1178 4863 
L 1178 4134 
L 603 4134 
L 603 4863 
z
" transform="scale(0.015625)"/>
       <path id="DejaVuSans-76" d="M 191 3500 
L 800 3500 
L 1894 563 
L 2988 3500 
L 3597 3500 
L 2284 0 
L 1503 0 
L 191 3500 
z
" transform="scale(0.015625)"/>
       <path id="DejaVuSans-75" d="M 544 1381 
L 544 3500 
L 1119 3500 
L 1119 1403 
Q 1119 906 1312 657 
Q 1506 409 1894 409 
Q 2359 409 2629 706 
Q 2900 1003 2900 1516 
L 2900 3500 
L 3475 3500 
L 3475 0 
L 2900 0 
L 2900 538 
Q 2691 219 2414 64 
Q 2138 -91 1772 -91 
Q 1169 -91 856 284 
Q 544 659 544 1381 
z
M 1991 3584 
L 1991 3584 
z
" transform="scale(0.015625)"/>
       <path id="DejaVuSans-6d" d="M 3328 2828 
Q 3544 3216 3844 3400 
Q 4144 3584 4550 3584 
Q 5097 3584 5394 3201 
Q 5691 2819 5691 2113 
L 5691 0 
L 5113 0 
L 5113 2094 
Q 5113 2597 4934 2840 
Q 4756 3084 4391 3084 
Q 3944 3084 3684 2787 
Q 3425 2491 3425 1978 
L 3425 0 
L 2847 0 
L 2847 2094 
Q 2847 2600 2669 2842 
Q 2491 3084 2119 3084 
Q 1678 3084 1418 2786 
Q 1159 2488 1159 1978 
L 1159 0 
L 581 0 
L 581 3500 
L 1159 3500 
L 1159 2956 
Q 1356 3278 1631 3431 
Q 1906 3584 2284 3584 
Q 2666 3584 2933 3390 
Q 3200 3197 3328 2828 
z
" transform="scale(0.015625)"/>
       <path id="DejaVuSans-67" d="M 2906 1791 
Q 2906 2416 2648 2759 
Q 2391 3103 1925 3103 
Q 1463 3103 1205 2759 
Q 947 2416 947 1791 
Q 947 1169 1205 825 
Q 1463 481 1925 481 
Q 2391 481 2648 825 
Q 2906 1169 2906 1791 
z
M 3481 434 
Q 3481 -459 3084 -895 
Q 2688 -1331 1869 -1331 
Q 1566 -1331 1297 -1286 
Q 1028 -1241 775 -1147 
L 775 -588 
Q 1028 -725 1275 -790 
Q 1522 -856 1778 -856 
Q 2344 -856 2625 -561 
Q 2906 -266 2906 331 
L 2906 616 
Q 2728 306 2450 153 
Q 2172 0 1784 0 
Q 1141 0 747 490 
Q 353 981 353 1791 
Q 353 2603 747 3093 
Q 1141 3584 1784 3584 
Q 2172 3584 2450 3431 
Q 2728 3278 2906 2969 
L 2906 3500 
L 3481 3500 
L 3481 434 
z
" transform="scale(0.015625)"/>
       <path id="DejaVuSans-28" d="M 1984 4856 
Q 1566 4138 1362 3434 
Q 1159 2731 1159 2009 
Q 1159 1288 1364 580 
Q 1569 -128 1984 -844 
L 1484 -844 
Q 1016 -109 783 600 
Q 550 1309 550 2009 
Q 550 2706 781 3412 
Q 1013 4119 1484 4856 
L 1984 4856 
z
" transform="scale(0.015625)"/>
       <path id="DejaVuSans-3d" d="M 678 2906 
L 4684 2906 
L 4684 2381 
L 678 2381 
L 678 2906 
z
M 678 1631 
L 4684 1631 
L 4684 1100 
L 678 1100 
L 678 1631 
z
" transform="scale(0.015625)"/>
       <path id="DejaVuSans-6c" d="M 603 4863 
L 1178 4863 
L 1178 0 
L 603 0 
L 603 4863 
z
" transform="scale(0.015625)"/>
       <path id="DejaVuSans-77" d="M 269 3500 
L 844 3500 
L 1563 769 
L 2278 3500 
L 2956 3500 
L 3675 769 
L 4391 3500 
L 4966 3500 
L 4050 0 
L 3372 0 
L 2619 2869 
L 1863 0 
L 1184 0 
L 269 3500 
z
" transform="scale(0.015625)"/>
       <path id="DejaVuSans-2c" d="M 750 794 
L 1409 794 
L 1409 256 
L 897 -744 
L 494 -744 
L 750 256 
L 750 794 
z
" transform="scale(0.015625)"/>
       <path id="DejaVuSans-68" d="M 3513 2113 
L 3513 0 
L 2938 0 
L 2938 2094 
Q 2938 2591 2744 2837 
Q 2550 3084 2163 3084 
Q 1697 3084 1428 2787 
Q 1159 2491 1159 1978 
L 1159 0 
L 581 0 
L 581 4863 
L 1159 4863 
L 1159 2956 
Q 1366 3272 1645 3428 
Q 1925 3584 2291 3584 
Q 2894 3584 3203 3211 
Q 3513 2838 3513 2113 
z
" transform="scale(0.015625)"/>
       <path id="DejaVuSans-29" d="M 513 4856 
L 1013 4856 
Q 1481 4119 1714 3412 
Q 1947 2706 1947 2009 
Q 1947 1309 1714 600 
Q 1481 -109 1013 -844 
L 513 -844 
Q 928 -128 1133 580 
Q 1338 1288 1338 2009 
Q 1338 2731 1133 3434 
Q 928 4138 513 4856 
z
" transform="scale(0.015625)"/>
      </defs>
      <use xlink:href="#DejaVuSans-44"/>
      <use xlink:href="#DejaVuSans-65" x="77.001953"/>
      <use xlink:href="#DejaVuSans-70" x="138.525391"/>
      <use xlink:href="#DejaVuSans-65" x="202.001953"/>
      <use xlink:href="#DejaVuSans-6e" x="263.525391"/>
      <use xlink:href="#DejaVuSans-64" x="326.904297"/>
      <use xlink:href="#DejaVuSans-65" x="390.380859"/>
      <use xlink:href="#DejaVuSans-6e" x="451.904297"/>
      <use xlink:href="#DejaVuSans-63" x="515.283203"/>
      <use xlink:href="#DejaVuSans-65" x="570.263672"/>
      <use xlink:href="#DejaVuSans-20" x="631.787109"/>
      <use xlink:href="#DejaVuSans-6f" x="663.574219"/>
      <use xlink:href="#DejaVuSans-6e" x="724.755859"/>
      <use xlink:href="#DejaVuSans-20" x="788.134766"/>
      <use xlink:href="#DejaVuSans-61" x="819.921875"/>
      <use xlink:href="#DejaVuSans-63" x="881.201172"/>
      <use xlink:href="#DejaVuSans-74" x="936.181641"/>
      <use xlink:href="#DejaVuSans-69" x="975.390625"/>
      <use xlink:href="#DejaVuSans-76" x="1003.173828"/>
      <use xlink:href="#DejaVuSans-65" x="1062.353516"/>
      <use xlink:href="#DejaVuSans-20" x="1123.876953"/>
      <use xlink:href="#DejaVuSans-70" x="1155.664062"/>
      <use xlink:href="#DejaVuSans-75" x="1219.140625"/>
      <use xlink:href="#DejaVuSans-6d" x="1282.519531"/>
      <use xlink:href="#DejaVuSans-70" x="1379.931641"/>
      <use xlink:href="#DejaVuSans-69" x="1443.408203"/>
      <use xlink:href="#DejaVuSans-6e" x="1471.191406"/>
      <use xlink:href="#DejaVuSans-67" x="1534.570312"/>
      <use xlink:href="#DejaVuSans-20" x="1598.046875"/>
      <use xlink:href="#DejaVuSans-28" x="1629.833984"/>
      <use xlink:href="#DejaVuSans-30" x="1668.847656"/>
      <use xlink:href="#DejaVuSans-20" x="1732.470703"/>
      <use xlink:href="#DejaVuSans-3d" x="1764.257812"/>
      <use xlink:href="#DejaVuSans-20" x="1848.046875"/>
      <use xlink:href="#DejaVuSans-6c" x="1879.833984"/>
      <use xlink:href="#DejaVuSans-6f" x="1907.617188"/>
      <use xlink:href="#DejaVuSans-77" x="1968.798828"/>
      <use xlink:href="#DejaVuSans-2c" x="2050.585938"/>
      <use xlink:href="#DejaVuSans-20" x="2082.373047"/>
      <use xlink:href="#DejaVuSans-31" x="2114.160156"/>
      <use xlink:href="#DejaVuSans-20" x="2177.783203"/>
      <use xlink:href="#DejaVuSans-3d" x="2209.570312"/>
      <use xlink:href="#DejaVuSans-20" x="2293.359375"/>
      <use xlink:href="#DejaVuSans-68" x="2325.146484"/>
      <use xlink:href="#DejaVuSans-69" x="2388.525391"/>
      <use xlink:href="#DejaVuSans-67" x="2416.308594"/>
      <use xlink:href="#DejaVuSans-68" x="2479.785156"/>
      <use xlink:href="#DejaVuSans-29" x="2543.164062"/>
     </g>
    </g>
   </g>
   <g id="matplotlib.axis_2">
    <g id="ytick_1">
     <g id="line2d_7">
      <defs>
       <path id="m94ed236ac7" d="M 0 0 
L -3.5 0 
" style="stroke: #334155; stroke-width: 0.8"/>
      </defs>
      <g>
       <use xlink:href="#m94ed236ac7" x="43.78125" y="377.893969" style="fill: #334155; stroke: #334155; stroke-width: 0.8"/>
      </g>
     </g>
     <g id="text_8">
      <!-- 0.0 -->
      <g style="fill: #334155" transform="translate(20.878125 381.693187) scale(0.1 -0.1)">
       <use xlink:href="#DejaVuSans-30"/>
       <use xlink:href="#DejaVuSans-2e" x="63.623047"/>
       <use xlink:href="#DejaVuSans-30" x="95.410156"/>
      </g>
     </g>
    </g>
    <g id="ytick_2">
     <g id="line2d_8">
      <g>
       <use xlink:href="#m94ed236ac7" x="43.78125" y="308.322204" style="fill: #334155; stroke: #334155; stroke-width: 0.8"/>
      </g>
     </g>
     <g id="text_9">
      <!-- 0.2 -->
      <g style="fill: #334155" transform="translate(20.878125 312.121423) scale(0.1 -0.1)">
       <use xlink:href="#DejaVuSans-30"/>
       <use xlink:href="#DejaVuSans-2e" x="63.623047"/>
       <use xlink:href="#DejaVuSans-32" x="95.410156"/>
      </g>
     </g>
    </g>
    <g id="ytick_3">
     <g id="line2d_9">
      <g>
       <use xlink:href="#m94ed236ac7" x="43.78125" y="238.750439" style="fill: #334155; stroke: #334155; stroke-width: 0.8"/>
      </g>
     </g>
     <g id="text_10">
      <!-- 0.4 -->
      <g style="fill: #334155" transform="translate(20.878125 242.549658) scale(0.1 -0.1)">
       <use xlink:href="#DejaVuSans-30"/>
       <use xlink:href="#DejaVuSans-2e" x="63.623047"/>
       <use xlink:href="#DejaVuSans-34" x="95.410156"/>
      </g>
     </g>
    </g>
    <g id="ytick_4">
     <g id="line2d_10">
      <g>
       <use xlink:href="#m94ed236ac7" x="43.78125" y="169.178675" style="fill: #334155; stroke: #334155; stroke-width: 0.8"/>
      </g>
     </g>
     <g id="text_11">
      <!-- 0.6 -->
      <g style="fill: #334155" transform="translate(20.878125 172.977893) scale(0.1 -0.1)">
       <use xlink:href="#DejaVuSans-30"/>
       <use xlink:href="#DejaVuSans-2e" x="63.623047"/>
       <use xlink:href="#DejaVuSans-36" x="95.410156"/>
      </g>
     </g>
    </g>
    <g id="ytick_5">
     <g id="line2d_11">
      <g>
       <use xlink:href="#m94ed236ac7" x="43.78125" y="99.60691" style="fill: #334155; stroke: #334155; stroke-width: 0.8"/>
      </g>
     </g>
     <g id="text_12">
      <!-- 0.8 -->
      <g style="fill: #334155" transform="translate(20.878125 103.406129) scale(0.1 -0.1)">
       <use xlink:href="#DejaVuSans-30"/>
       <use xlink:href="#DejaVuSans-2e" x="63.623047"/>
       <use xlink:href="#DejaVuSans-38" x="95.410156"/>
      </g>
     </g>
    </g>
    <g id="ytick_6">
     <g id="line2d_12">
      <g>
       <use xlink:href="#m94ed236ac7" x="43.78125" y="30.035145" style="fill: #334155; stroke: #334155; stroke-width: 0.8"/>
      </g>
     </g>
     <g id="text_13">
      <!-- 1.0 -->
      <g style="fill: #334155" transform="translate(20.878125 33.834364) scale(0.1 -0.1)">
       <use xlink:href="#DejaVuSans-31"/>
       <use xlink:href="#DejaVuSans-2e" x="63.623047"/>
       <use xlink:href="#DejaVuSans-30" x="95.410156"/>
      </g>
     </g>
    </g>
    <g id="text_14">
     <!-- Passive hydraulic contribution (0 = low, 1 = high) -->
     <g style="fill: #0f172a" transform="translate(14.798437 324.778156) rotate(-90) scale(0.1 -0.1)">
      <defs>
       <path id="DejaVuSans-50" d="M 1259 4147 
L 1259 2394 
L 2053 2394 
Q 2494 2394 2734 2622 
Q 2975 2850 2975 3272 
Q 2975 3691 2734 3919 
Q 2494 4147 2053 4147 
L 1259 4147 
z
M 628 4666 
L 2053 4666 
Q 2838 4666 3239 4311 
Q 3641 3956 3641 3272 
Q 3641 2581 3239 2228 
Q 2838 1875 2053 1875 
L 1259 1875 
L 1259 0 
L 628 0 
L 628 4666 
z
" transform="scale(0.015625)"/>
       <path id="DejaVuSans-73" d="M 2834 3397 
L 2834 2853 
Q 2591 2978 2328 3040 
Q 2066 3103 1784 3103 
Q 1356 3103 1142 2972 
Q 928 2841 928 2578 
Q 928 2378 1081 2264 
Q 1234 2150 1697 2047 
L 1894 2003 
Q 2506 1872 2764 1633 
Q 3022 1394 3022 966 
Q 3022 478 2636 193 
Q 2250 -91 1575 -91 
Q 1294 -91 989 -36 
Q 684 19 347 128 
L 347 722 
Q 666 556 975 473 
Q 1284 391 1588 391 
Q 1994 391 2212 530 
Q 2431 669 2431 922 
Q 2431 1156 2273 1281 
Q 2116 1406 1581 1522 
L 1381 1569 
Q 847 1681 609 1914 
Q 372 2147 372 2553 
Q 372 3047 722 3315 
Q 1072 3584 1716 3584 
Q 2034 3584 2315 3537 
Q 2597 3491 2834 3397 
z
" transform="scale(0.015625)"/>
       <path id="DejaVuSans-79" d="M 2059 -325 
Q 1816 -950 1584 -1140 
Q 1353 -1331 966 -1331 
L 506 -1331 
L 506 -850 
L 844 -850 
Q 1081 -850 1212 -737 
Q 1344 -625 1503 -206 
L 1606 56 
L 191 3500 
L 800 3500 
L 1894 763 
L 2988 3500 
L 3597 3500 
L 2059 -325 
z
" transform="scale(0.015625)"/>
       <path id="DejaVuSans-72" d="M 2631 2963 
Q 2534 3019 2420 3045 
Q 2306 3072 2169 3072 
Q 1681 3072 1420 2755 
Q 1159 2438 1159 1844 
L 1159 0 
L 581 0 
L 581 3500 
L 1159 3500 
L 1159 2956 
Q 1341 3275 1631 3429 
Q 1922 3584 2338 3584 
Q 2397 3584 2469 3576 
Q 2541 3569 2628 3553 
L 2631 2963 
z
" transform="scale(0.015625)"/>
       <path id="DejaVuSans-62" d="M 3116 1747 
Q 3116 2381 2855 2742 
Q 2594 3103 2138 3103 
Q 1681 3103 1420 2742 
Q 1159 2381 1159 1747 
Q 1159 1113 1420 752 
Q 1681 391 2138 391 
Q 2594 391 2855 752 
Q 3116 1113 3116 1747 
z
M 1159 2969 
Q 1341 3281 1617 3432 
Q 1894 3584 2278 3584 
Q 2916 3584 3314 3078 
Q 3713 2572 3713 1747 
Q 3713 922 3314 415 
Q 2916 -91 2278 -91 
Q 1894 -91 1617 61 
Q 1341 213 1159 525 
L 1159 0 
L 581 0 
L 581 4863 
L 1159 4863 
L 1159 2969 
z
" transform="scale(0.015625)"/>
      </defs>
      <use xlink:href="#DejaVuSans-50"/>
      <use xlink:href="#DejaVuSans-61" x="55.802734"/>
      <use xlink:href="#DejaVuSans-73" x="117.082031"/>
      <use xlink:href="#DejaVuSans-73" x="169.181641"/>
      <use xlink:href="#DejaVuSans-69" x="221.28125"/>
      <use xlink:href="#DejaVuSans-76" x="249.064453"/>
      <use xlink:href="#DejaVuSans-65" x="308.244141"/>
      <use xlink:href="#DejaVuSans-20" x="369.767578"/>
      <use xlink:href="#DejaVuSans-68" x="401.554688"/>
      <use xlink:href="#DejaVuSans-79" x="464.933594"/>
      <use xlink:href="#DejaVuSans-64" x="524.113281"/>
      <use xlink:href="#DejaVuSans-72" x="587.589844"/>
      <use xlink:href="#DejaVuSans-61" x="628.703125"/>
      <use xlink:href="#DejaVuSans-75" x="689.982422"/>
      <use xlink:href="#DejaVuSans-6c" x="753.361328"/>
      <use xlink:href="#DejaVuSans-69" x="781.144531"/>
      <use xlink:href="#DejaVuSans-63" x="808.927734"/>
      <use xlink:href="#DejaVuSans-20" x="863.908203"/>
      <use xlink:href="#DejaVuSans-63" x="895.695312"/>
      <use xlink:href="#DejaVuSans-6f" x="950.675781"/>
      <use xlink:href="#DejaVuSans-6e" x="1011.857422"/>
      <use xlink:href="#DejaVuSans-74" x="1075.236328"/>
      <use xlink:href="#DejaVuSans-72" x="1114.445312"/>
      <use xlink:href="#DejaVuSans-69" x="1155.558594"/>
      <use xlink:href="#DejaVuSans-62" x="1183.341797"/>
      <use xlink:href="#DejaVuSans-75" x="1246.818359"/>
      <use xlink:href="#DejaVuSans-74" x="1310.197266"/>
      <use xlink:href="#DejaVuSans-69" x="1349.40625"/>
      <use xlink:href="#DejaVuSans-6f" x="1377.189453"/>
      <use xlink:href="#DejaVuSans-6e" x="1438.371094"/>
      <use xlink:href="#DejaVuSans-20" x="1501.75"/>
      <use xlink:href="#DejaVuSans-28" x="1533.537109"/>
      <use xlink:href="#DejaVuSans-30" x="1572.550781"/>
      <use xlink:href="#DejaVuSans-20" x="1636.173828"/>
      <use xlink:href="#DejaVuSans-3d" x="1667.960938"/>
      <use xlink:href="#DejaVuSans-20" x="1751.75"/>
      <use xlink:href="#DejaVuSans-6c" x="1783.537109"/>
      <use xlink:href="#DejaVuSans-6f" x="1811.320312"/>
      <use xlink:href="#DejaVuSans-77" x="1872.501953"/>
      <use xlink:href="#DejaVuSans-2c" x="1954.289062"/>
      <use xlink:href="#DejaVuSans-20" x="1986.076172"/>
      <use xlink:href="#DejaVuSans-31" x="2017.863281"/>
      <use xlink:href="#DejaVuSans-20" x="2081.486328"/>
      <use xlink:href="#DejaVuSans-3d" x="2113.273438"/>
      <use xlink:href="#DejaVuSans-20" x="2197.0625"/>
      <use xlink:href="#DejaVuSans-68" x="2228.849609"/>
      <use xlink:href="#DejaVuSans-69" x="2292.228516"/>
      <use xlink:href="#DejaVuSans-67" x="2320.011719"/>
      <use xlink:href="#DejaVuSans-68" x="2383.488281"/>
      <use xlink:href="#DejaVuSans-29" x="2446.867188"/>
     </g>
    </g>
   </g>
   <g id="line2d_13">
    <path d="M 43.78125 203.964557 
L 534.82125 203.964557 
" clip-path="url(#p31bb3acf36)" style="fill: none; stroke-dasharray: 3.7,1.6; stroke-dashoffset: 0; stroke: #cbd5e1"/>
   </g>
   <g id="line2d_14">
    <path d="M 284.487132 377.893969 
L 284.487132 23.077969 
" clip-path="url(#p31bb3acf36)" style="fill: none; stroke-dasharray: 3.7,1.6; stroke-dashoffset: 0; stroke: #cbd5e1"/>
   </g>
   <g id="patch_3">
    <path d="M 43.78125 377.893969 
L 43.78125 23.077969 
" style="fill: none; stroke: #334155; stroke-width: 0.8; stroke-linejoin: miter; stroke-linecap: square"/>
   </g>
   <g id="patch_4">
    <path d="M 534.82125 377.893969 
L 534.82125 23.077969 
" style="fill: none; stroke: #334155; stroke-width: 0.8; stroke-linejoin: miter; stroke-linecap: square"/>
   </g>
   <g id="patch_5">
    <path d="M 43.78125 377.893969 
L 534.82125 377.893969 
" style="fill: none; stroke: #334155; stroke-width: 0.8; stroke-linejoin: miter; stroke-linecap: square"/>
   </g>
   <g id="patch_6">
    <path d="M 43.78125 23.077969 
L 534.82125 23.077969 
" style="fill: none; stroke: #334155; stroke-width: 0.8; stroke-linejoin: miter; stroke-linecap: square"/>
   </g>
   <g id="PathCollection_1">
    <defs>
     <path id="m02d1de6bac" d="M 0 6.708204 
C 1.779036 6.708204 3.485448 6.001385 4.743416 4.743416 
C 6.001385 3.485448 6.708204 1.779036 6.708204 0 
C 6.708204 -1.779036 6.001385 -3.485448 4.743416 -4.743416 
C 3.485448 -6.001385 1.779036 -6.708204 0 -6.708204 
C -1.779036 -6.708204 -3.485448 -6.001385 -4.743416 -4.743416 
C -6.001385 -3.485448 -6.708204 -1.779036 -6.708204 0 
C -6.708204 1.779036 -6.001385 3.485448 -4.743416 4.743416 
C -3.485448 6.001385 -1.779036 6.708204 0 6.708204 
z
" style="stroke: #ffffff; stroke-width: 1.2"/>
    </defs>
    <g clip-path="url(#p31bb3acf36)">
     <use xlink:href="#m02d1de6bac" x="501.122426" y="360.501028" style="fill: #475569; stroke: #ffffff; stroke-width: 1.2"/>
    </g>
   </g>
   <g id="text_15">
    <!-- Conventional -->
    <g style="fill: #0f172a" transform="translate(510.750662 345.205114) scale(0.09 -0.09)">
     <defs>
      <path id="DejaVuSans-43" d="M 4122 4306 
L 4122 3641 
Q 3803 3938 3442 4084 
Q 3081 4231 2675 4231 
Q 1875 4231 1450 3742 
Q 1025 3253 1025 2328 
Q 1025 1406 1450 917 
Q 1875 428 2675 428 
Q 3081 428 3442 575 
Q 3803 722 4122 1019 
L 4122 359 
Q 3791 134 3420 21 
Q 3050 -91 2638 -91 
Q 1578 -91 968 557 
Q 359 1206 359 2328 
Q 359 3453 968 4101 
Q 1578 4750 2638 4750 
Q 3056 4750 3426 4639 
Q 3797 4528 4122 4306 
z
" transform="scale(0.015625)"/>
     </defs>
     <use xlink:href="#DejaVuSans-43"/>
     <use xlink:href="#DejaVuSans-6f" x="69.824219"/>
     <use xlink:href="#DejaVuSans-6e" x="131.005859"/>
     <use xlink:href="#DejaVuSans-76" x="194.384766"/>
     <use xlink:href="#DejaVuSans-65" x="253.564453"/>
     <use xlink:href="#DejaVuSans-6e" x="315.087891"/>
     <use xlink:href="#DejaVuSans-74" x="378.466797"/>
     <use xlink:href="#DejaVuSans-69" x="417.675781"/>
     <use xlink:href="#DejaVuSans-6f" x="445.458984"/>
     <use xlink:href="#DejaVuSans-6e" x="506.640625"/>
     <use xlink:href="#DejaVuSans-61" x="570.019531"/>
     <use xlink:href="#DejaVuSans-6c" x="631.298828"/>
    </g>
    <!-- mechanical plant -->
    <g style="fill: #0f172a" transform="translate(510.750662 355.283145) scale(0.09 -0.09)">
     <use xlink:href="#DejaVuSans-6d"/>
     <use xlink:href="#DejaVuSans-65" x="97.412109"/>
     <use xlink:href="#DejaVuSans-63" x="158.935547"/>
     <use xlink:href="#DejaVuSans-68" x="213.916016"/>
     <use xlink:href="#DejaVuSans-61" x="277.294922"/>
     <use xlink:href="#DejaVuSans-6e" x="338.574219"/>
     <use xlink:href="#DejaVuSans-69" x="401.953125"/>
     <use xlink:href="#DejaVuSans-63" x="429.736328"/>
     <use xlink:href="#DejaVuSans-61" x="484.716797"/>
     <use xlink:href="#DejaVuSans-6c" x="545.996094"/>
     <use xlink:href="#DejaVuSans-20" x="573.779297"/>
     <use xlink:href="#DejaVuSans-70" x="605.566406"/>
     <use xlink:href="#DejaVuSans-6c" x="669.042969"/>
     <use xlink:href="#DejaVuSans-61" x="696.826172"/>
     <use xlink:href="#DejaVuSans-6e" x="758.105469"/>
     <use xlink:href="#DejaVuSans-74" x="821.484375"/>
    </g>
   </g>
   <g id="PathCollection_2">
    <defs>
     <path id="md194855860" d="M 0 6.708204 
C 1.779036 6.708204 3.485448 6.001385 4.743416 4.743416 
C 6.001385 3.485448 6.708204 1.779036 6.708204 0 
C 6.708204 -1.779036 6.001385 -3.485448 4.743416 -4.743416 
C 3.485448 -6.001385 1.779036 -6.708204 0 -6.708204 
C -1.779036 -6.708204 -3.485448 -6.001385 -4.743416 -4.743416 
C -6.001385 -3.485448 -6.708204 -1.779036 -6.708204 0 
C -6.708204 1.779036 -6.001385 3.485448 -4.743416 4.743416 
C -3.485448 6.001385 -1.779036 6.708204 0 6.708204 
z
" style="stroke: #ffffff; stroke-width: 1.2"/>
    </defs>
    <g clip-path="url(#p31bb3acf36)">
     <use xlink:href="#md194855860" x="452.98125" y="343.108086" style="fill: #2563eb; stroke: #ffffff; stroke-width: 1.2"/>
    </g>
   </g>
   <g id="text_16">
    <!-- Pumped seawater -->
    <g style="fill: #0f172a" transform="translate(462.609485 327.812173) scale(0.09 -0.09)">
     <use xlink:href="#DejaVuSans-50"/>
     <use xlink:href="#DejaVuSans-75" x="58.552734"/>
     <use xlink:href="#DejaVuSans-6d" x="121.931641"/>
     <use xlink:href="#DejaVuSans-70" x="219.34375"/>
     <use xlink:href="#DejaVuSans-65" x="282.820312"/>
     <use xlink:href="#DejaVuSans-64" x="344.34375"/>
     <use xlink:href="#DejaVuSans-20" x="407.820312"/>
     <use xlink:href="#DejaVuSans-73" x="439.607422"/>
     <use xlink:href="#DejaVuSans-65" x="491.707031"/>
     <use xlink:href="#DejaVuSans-61" x="553.230469"/>
     <use xlink:href="#DejaVuSans-77" x="614.509766"/>
     <use xlink:href="#DejaVuSans-61" x="696.296875"/>
     <use xlink:href="#DejaVuSans-74" x="757.576172"/>
     <use xlink:href="#DejaVuSans-65" x="796.785156"/>
     <use xlink:href="#DejaVuSans-72" x="858.308594"/>
    </g>
    <!-- loop -->
    <g style="fill: #0f172a" transform="translate(462.609485 337.890204) scale(0.09 -0.09)">
     <use xlink:href="#DejaVuSans-6c"/>
     <use xlink:href="#DejaVuSans-6f" x="27.783203"/>
     <use xlink:href="#DejaVuSans-6f" x="88.964844"/>
     <use xlink:href="#DejaVuSans-70" x="150.146484"/>
    </g>
   </g>
   <g id="PathCollection_3">
    <defs>
     <path id="mf6ae925c66" d="M 0 6.708204 
C 1.779036 6.708204 3.485448 6.001385 4.743416 4.743416 
C 6.001385 3.485448 6.708204 1.779036 6.708204 0 
C 6.708204 -1.779036 6.001385 -3.485448 4.743416 -4.743416 
C 3.485448 -6.001385 1.779036 -6.708204 0 -6.708204 
C -1.779036 -6.708204 -3.485448 -6.001385 -4.743416 -4.743416 
C -6.001385 -3.485448 -6.708204 -1.779036 -6.708204 0 
C -6.708204 1.779036 -6.001385 3.485448 -4.743416 4.743416 
C -3.485448 6.001385 -1.779036 6.708204 0 6.708204 
z
" style="stroke: #ffffff; stroke-width: 1.2"/>
    </defs>
    <g clip-path="url(#p31bb3acf36)">
     <use xlink:href="#mf6ae925c66" x="308.557721" y="151.785733" style="fill: #059669; stroke: #ffffff; stroke-width: 1.2"/>
    </g>
   </g>
   <g id="text_17">
    <!-- Hydra-Cool hybrid -->
    <g style="fill: #0f172a" transform="translate(318.185956 136.48982) scale(0.09 -0.09)">
     <defs>
      <path id="DejaVuSans-48" d="M 628 4666 
L 1259 4666 
L 1259 2753 
L 3553 2753 
L 3553 4666 
L 4184 4666 
L 4184 0 
L 3553 0 
L 3553 2222 
L 1259 2222 
L 1259 0 
L 628 0 
L 628 4666 
z
" transform="scale(0.015625)"/>
      <path id="DejaVuSans-2d" d="M 313 2009 
L 1997 2009 
L 1997 1497 
L 313 1497 
L 313 2009 
z
" transform="scale(0.015625)"/>
     </defs>
     <use xlink:href="#DejaVuSans-48"/>
     <use xlink:href="#DejaVuSans-79" x="75.195312"/>
     <use xlink:href="#DejaVuSans-64" x="134.375"/>
     <use xlink:href="#DejaVuSans-72" x="197.851562"/>
     <use xlink:href="#DejaVuSans-61" x="238.964844"/>
     <use xlink:href="#DejaVuSans-2d" x="300.244141"/>
     <use xlink:href="#DejaVuSans-43" x="336.328125"/>
     <use xlink:href="#DejaVuSans-6f" x="406.152344"/>
     <use xlink:href="#DejaVuSans-6f" x="467.333984"/>
     <use xlink:href="#DejaVuSans-6c" x="528.515625"/>
     <use xlink:href="#DejaVuSans-20" x="556.298828"/>
     <use xlink:href="#DejaVuSans-68" x="588.085938"/>
     <use xlink:href="#DejaVuSans-79" x="651.464844"/>
     <use xlink:href="#DejaVuSans-62" x="710.644531"/>
     <use xlink:href="#DejaVuSans-72" x="774.121094"/>
     <use xlink:href="#DejaVuSans-69" x="815.234375"/>
     <use xlink:href="#DejaVuSans-64" x="843.017578"/>
    </g>
    <!-- retrofit assist -->
    <g style="fill: #0f172a" transform="translate(318.185956 146.567851) scale(0.09 -0.09)">
     <defs>
      <path id="DejaVuSans-66" d="M 2375 4863 
L 2375 4384 
L 1825 4384 
Q 1516 4384 1395 4259 
Q 1275 4134 1275 3809 
L 1275 3500 
L 2222 3500 
L 2222 3053 
L 1275 3053 
L 1275 0 
L 697 0 
L 697 3053 
L 147 3053 
L 147 3500 
L 697 3500 
L 697 3744 
Q 697 4328 969 4595 
Q 1241 4863 1831 4863 
L 2375 4863 
z
" transform="scale(0.015625)"/>
     </defs>
     <use xlink:href="#DejaVuSans-72"/>
     <use xlink:href="#DejaVuSans-65" x="38.863281"/>
     <use xlink:href="#DejaVuSans-74" x="100.386719"/>
     <use xlink:href="#DejaVuSans-72" x="139.595703"/>
     <use xlink:href="#DejaVuSans-6f" x="178.458984"/>
     <use xlink:href="#DejaVuSans-66" x="239.640625"/>
     <use xlink:href="#DejaVuSans-69" x="274.845703"/>
     <use xlink:href="#DejaVuSans-74" x="302.628906"/>
     <use xlink:href="#DejaVuSans-20" x="341.837891"/>
     <use xlink:href="#DejaVuSans-61" x="373.625"/>
     <use xlink:href="#DejaVuSans-73" x="434.904297"/>
     <use xlink:href="#DejaVuSans-73" x="487.003906"/>
     <use xlink:href="#DejaVuSans-69" x="539.103516"/>
     <use xlink:href="#DejaVuSans-73" x="566.886719"/>
     <use xlink:href="#DejaVuSans-74" x="618.986328"/>
    </g>
   </g>
   <g id="PathCollection_4">
    <defs>
     <path id="mc9a0fb3586" d="M 0 6.708204 
C 1.779036 6.708204 3.485448 6.001385 4.743416 4.743416 
C 6.001385 3.485448 6.708204 1.779036 6.708204 0 
C 6.708204 -1.779036 6.001385 -3.485448 4.743416 -4.743416 
C 3.485448 -6.001385 1.779036 -6.708204 0 -6.708204 
C -1.779036 -6.708204 -3.485448 -6.001385 -4.743416 -4.743416 
C -6.001385 -3.485448 -6.708204 -1.779036 -6.708204 0 
C -6.708204 1.779036 -6.001385 3.485448 -4.743416 4.743416 
C -3.485448 6.001385 -1.779036 6.708204 0 6.708204 
z
" style="stroke: #ffffff; stroke-width: 1.2"/>
    </defs>
    <g clip-path="url(#p31bb3acf36)">
     <use xlink:href="#mc9a0fb3586" x="91.922426" y="47.428086" style="fill: #f59e0b; stroke: #ffffff; stroke-width: 1.2"/>
    </g>
   </g>
   <g id="text_18">
    <!-- Hydra-Cool passive -->
    <g style="fill: #0f172a" transform="translate(101.550662 32.132173) scale(0.09 -0.09)">
     <use xlink:href="#DejaVuSans-48"/>
     <use xlink:href="#DejaVuSans-79" x="75.195312"/>
     <use xlink:href="#DejaVuSans-64" x="134.375"/>
     <use xlink:href="#DejaVuSans-72" x="197.851562"/>
     <use xlink:href="#DejaVuSans-61" x="238.964844"/>
     <use xlink:href="#DejaVuSans-2d" x="300.244141"/>
     <use xlink:href="#DejaVuSans-43" x="336.328125"/>
     <use xlink:href="#DejaVuSans-6f" x="406.152344"/>
     <use xlink:href="#DejaVuSans-6f" x="467.333984"/>
     <use xlink:href="#DejaVuSans-6c" x="528.515625"/>
     <use xlink:href="#DejaVuSans-20" x="556.298828"/>
     <use xlink:href="#DejaVuSans-70" x="588.085938"/>
     <use xlink:href="#DejaVuSans-61" x="651.5625"/>
     <use xlink:href="#DejaVuSans-73" x="712.841797"/>
     <use xlink:href="#DejaVuSans-73" x="764.941406"/>
     <use xlink:href="#DejaVuSans-69" x="817.041016"/>
     <use xlink:href="#DejaVuSans-76" x="844.824219"/>
     <use xlink:href="#DejaVuSans-65" x="904.003906"/>
    </g>
    <!-- edge cases -->
    <g style="fill: #0f172a" transform="translate(101.550662 42.210204) scale(0.09 -0.09)">
     <use xlink:href="#DejaVuSans-65"/>
     <use xlink:href="#DejaVuSans-64" x="61.523438"/>
     <use xlink:href="#DejaVuSans-67" x="125"/>
     <use xlink:href="#DejaVuSans-65" x="188.476562"/>
     <use xlink:href="#DejaVuSans-20" x="250"/>
     <use xlink:href="#DejaVuSans-63" x="281.787109"/>
     <use xlink:href="#DejaVuSans-61" x="336.767578"/>
     <use xlink:href="#DejaVuSans-73" x="398.046875"/>
     <use xlink:href="#DejaVuSans-65" x="450.146484"/>
     <use xlink:href="#DejaVuSans-73" x="511.669922"/>
    </g>
   </g>
   <g id="text_19">
    <!-- Passive-dominant -->
    <g style="fill: #92400e" transform="translate(58.223603 36.230274) scale(0.1 -0.1)">
     <use xlink:href="#DejaVuSans-50"/>
     <use xlink:href="#DejaVuSans-61" x="55.802734"/>
     <use xlink:href="#DejaVuSans-73" x="117.082031"/>
     <use xlink:href="#DejaVuSans-73" x="169.181641"/>
     <use xlink:href="#DejaVuSans-69" x="221.28125"/>
     <use xlink:href="#DejaVuSans-76" x="249.064453"/>
     <use xlink:href="#DejaVuSans-65" x="308.244141"/>
     <use xlink:href="#DejaVuSans-2d" x="369.767578"/>
     <use xlink:href="#DejaVuSans-64" x="405.851562"/>
     <use xlink:href="#DejaVuSans-6f" x="469.328125"/>
     <use xlink:href="#DejaVuSans-6d" x="530.509766"/>
     <use xlink:href="#DejaVuSans-69" x="627.921875"/>
     <use xlink:href="#DejaVuSans-6e" x="655.705078"/>
     <use xlink:href="#DejaVuSans-61" x="719.083984"/>
     <use xlink:href="#DejaVuSans-6e" x="780.363281"/>
     <use xlink:href="#DejaVuSans-74" x="843.742188"/>
    </g>
    <!-- but exploratory -->
    <g style="fill: #92400e" transform="translate(58.223603 47.428086) scale(0.1 -0.1)">
     <defs>
      <path id="DejaVuSans-78" d="M 3513 3500 
L 2247 1797 
L 3578 0 
L 2900 0 
L 1881 1375 
L 863 0 
L 184 0 
L 1544 1831 
L 300 3500 
L 978 3500 
L 1906 2253 
L 2834 3500 
L 3513 3500 
z
" transform="scale(0.015625)"/>
     </defs>
     <use xlink:href="#DejaVuSans-62"/>
     <use xlink:href="#DejaVuSans-75" x="63.476562"/>
     <use xlink:href="#DejaVuSans-74" x="126.855469"/>
     <use xlink:href="#DejaVuSans-20" x="166.064453"/>
     <use xlink:href="#DejaVuSans-65" x="197.851562"/>
     <use xlink:href="#DejaVuSans-78" x="257.625"/>
     <use xlink:href="#DejaVuSans-70" x="316.804688"/>
     <use xlink:href="#DejaVuSans-6c" x="380.28125"/>
     <use xlink:href="#DejaVuSans-6f" x="408.064453"/>
     <use xlink:href="#DejaVuSans-72" x="469.246094"/>
     <use xlink:href="#DejaVuSans-61" x="510.359375"/>
     <use xlink:href="#DejaVuSans-74" x="571.638672"/>
     <use xlink:href="#DejaVuSans-6f" x="610.847656"/>
     <use xlink:href="#DejaVuSans-72" x="672.029297"/>
     <use xlink:href="#DejaVuSans-79" x="713.142578"/>
    </g>
   </g>
   <g id="text_20">
    <!-- Pump-dominant -->
    <g style="fill: #1e3a8a" transform="translate(342.256544 342.346039) scale(0.1 -0.1)">
     <use xlink:href="#DejaVuSans-50"/>
     <use xlink:href="#DejaVuSans-75" x="58.552734"/>
     <use xlink:href="#DejaVuSans-6d" x="121.931641"/>
     <use xlink:href="#DejaVuSans-70" x="219.34375"/>
     <use xlink:href="#DejaVuSans-2d" x="282.820312"/>
     <use xlink:href="#DejaVuSans-64" x="318.904297"/>
     <use xlink:href="#DejaVuSans-6f" x="382.380859"/>
     <use xlink:href="#DejaVuSans-6d" x="443.5625"/>
     <use xlink:href="#DejaVuSans-69" x="540.974609"/>
     <use xlink:href="#DejaVuSans-6e" x="568.757812"/>
     <use xlink:href="#DejaVuSans-61" x="632.136719"/>
     <use xlink:href="#DejaVuSans-6e" x="693.416016"/>
     <use xlink:href="#DejaVuSans-74" x="756.794922"/>
    </g>
    <!-- systems -->
    <g style="fill: #1e3a8a" transform="translate(342.256544 353.543851) scale(0.1 -0.1)">
     <use xlink:href="#DejaVuSans-73"/>
     <use xlink:href="#DejaVuSans-79" x="52.099609"/>
     <use xlink:href="#DejaVuSans-73" x="111.279297"/>
     <use xlink:href="#DejaVuSans-74" x="163.378906"/>
     <use xlink:href="#DejaVuSans-65" x="202.587891"/>
     <use xlink:href="#DejaVuSans-6d" x="264.111328"/>
     <use xlink:href="#DejaVuSans-73" x="361.523438"/>
    </g>
   </g>
   <g id="text_21">
    <!-- Hydra-Cool target region: -->
    <g style="fill: #065f46" transform="translate(294.115368 84.168461) scale(0.1 -0.1)">
     <defs>
      <path id="DejaVuSans-3a" d="M 750 794 
L 1409 794 
L 1409 0 
L 750 0 
L 750 794 
z
M 750 3309 
L 1409 3309 
L 1409 2516 
L 750 2516 
L 750 3309 
z
" transform="scale(0.015625)"/>
     </defs>
     <use xlink:href="#DejaVuSans-48"/>
     <use xlink:href="#DejaVuSans-79" x="75.195312"/>
     <use xlink:href="#DejaVuSans-64" x="134.375"/>
     <use xlink:href="#DejaVuSans-72" x="197.851562"/>
     <use xlink:href="#DejaVuSans-61" x="238.964844"/>
     <use xlink:href="#DejaVuSans-2d" x="300.244141"/>
     <use xlink:href="#DejaVuSans-43" x="336.328125"/>
     <use xlink:href="#DejaVuSans-6f" x="406.152344"/>
     <use xlink:href="#DejaVuSans-6f" x="467.333984"/>
     <use xlink:href="#DejaVuSans-6c" x="528.515625"/>
     <use xlink:href="#DejaVuSans-20" x="556.298828"/>
     <use xlink:href="#DejaVuSans-74" x="588.085938"/>
     <use xlink:href="#DejaVuSans-61" x="627.294922"/>
     <use xlink:href="#DejaVuSans-72" x="688.574219"/>
     <use xlink:href="#DejaVuSans-67" x="727.9375"/>
     <use xlink:href="#DejaVuSans-65" x="791.414062"/>
     <use xlink:href="#DejaVuSans-74" x="852.9375"/>
     <use xlink:href="#DejaVuSans-20" x="892.146484"/>
     <use xlink:href="#DejaVuSans-72" x="923.933594"/>
     <use xlink:href="#DejaVuSans-65" x="962.796875"/>
     <use xlink:href="#DejaVuSans-67" x="1024.320312"/>
     <use xlink:href="#DejaVuSans-69" x="1087.796875"/>
     <use xlink:href="#DejaVuSans-6f" x="1115.580078"/>
     <use xlink:href="#DejaVuSans-6e" x="1176.761719"/>
     <use xlink:href="#DejaVuSans-3a" x="1240.140625"/>
    </g>
    <!-- partial passive aid, -->
    <g style="fill: #065f46" transform="translate(294.115368 95.366274) scale(0.1 -0.1)">
     <use xlink:href="#DejaVuSans-70"/>
     <use xlink:href="#DejaVuSans-61" x="63.476562"/>
     <use xlink:href="#DejaVuSans-72" x="124.755859"/>
     <use xlink:href="#DejaVuSans-74" x="165.869141"/>
     <use xlink:href="#DejaVuSans-69" x="205.078125"/>
     <use xlink:href="#DejaVuSans-61" x="232.861328"/>
     <use xlink:href="#DejaVuSans-6c" x="294.140625"/>
     <use xlink:href="#DejaVuSans-20" x="321.923828"/>
     <use xlink:href="#DejaVuSans-70" x="353.710938"/>
     <use xlink:href="#DejaVuSans-61" x="417.1875"/>
     <use xlink:href="#DejaVuSans-73" x="478.466797"/>
     <use xlink:href="#DejaVuSans-73" x="530.566406"/>
     <use xlink:href="#DejaVuSans-69" x="582.666016"/>
     <use xlink:href="#DejaVuSans-76" x="610.449219"/>
     <use xlink:href="#DejaVuSans-65" x="669.628906"/>
     <use xlink:href="#DejaVuSans-20" x="731.152344"/>
     <use xlink:href="#DejaVuSans-61" x="762.939453"/>
     <use xlink:href="#DejaVuSans-69" x="824.21875"/>
     <use xlink:href="#DejaVuSans-64" x="852.001953"/>
     <use xlink:href="#DejaVuSans-2c" x="915.478516"/>
    </g>
    <!-- not zero pumps -->
    <g style="fill: #065f46" transform="translate(294.115368 106.564086) scale(0.1 -0.1)">
     <defs>
      <path id="DejaVuSans-7a" d="M 353 3500 
L 3084 3500 
L 3084 2975 
L 922 459 
L 3084 459 
L 3084 0 
L 275 0 
L 275 525 
L 2438 3041 
L 353 3041 
L 353 3500 
z
" transform="scale(0.015625)"/>
     </defs>
     <use xlink:href="#DejaVuSans-6e"/>
     <use xlink:href="#DejaVuSans-6f" x="63.378906"/>
     <use xlink:href="#DejaVuSans-74" x="124.560547"/>
     <use xlink:href="#DejaVuSans-20" x="163.769531"/>
     <use xlink:href="#DejaVuSans-7a" x="195.556641"/>
     <use xlink:href="#DejaVuSans-65" x="248.046875"/>
     <use xlink:href="#DejaVuSans-72" x="309.570312"/>
     <use xlink:href="#DejaVuSans-6f" x="348.433594"/>
     <use xlink:href="#DejaVuSans-20" x="409.615234"/>
     <use xlink:href="#DejaVuSans-70" x="441.402344"/>
     <use xlink:href="#DejaVuSans-75" x="504.878906"/>
     <use xlink:href="#DejaVuSans-6d" x="568.257812"/>
     <use xlink:href="#DejaVuSans-70" x="665.669922"/>
     <use xlink:href="#DejaVuSans-73" x="729.146484"/>
    </g>
   </g>
   <g id="text_22">
    <!-- Benchmark positioning matrix for cooling architectures -->
    <g style="fill: #0f172a" transform="translate(43.78125 17.077969) scale(0.13 -0.13)">
     <defs>
      <path id="DejaVuSans-Bold-42" d="M 2456 2859 
Q 2741 2859 2887 2984 
Q 3034 3109 3034 3353 
Q 3034 3594 2887 3720 
Q 2741 3847 2456 3847 
L 1791 3847 
L 1791 2859 
L 2456 2859 
z
M 2497 819 
Q 2859 819 3042 972 
Q 3225 1125 3225 1434 
Q 3225 1738 3044 1889 
Q 2863 2041 2497 2041 
L 1791 2041 
L 1791 819 
L 2497 819 
z
M 3616 2497 
Q 4003 2384 4215 2081 
Q 4428 1778 4428 1338 
Q 4428 663 3972 331 
Q 3516 0 2584 0 
L 588 0 
L 588 4666 
L 2394 4666 
Q 3366 4666 3802 4372 
Q 4238 4078 4238 3431 
Q 4238 3091 4078 2852 
Q 3919 2613 3616 2497 
z
" transform="scale(0.015625)"/>
      <path id="DejaVuSans-Bold-65" d="M 4031 1759 
L 4031 1441 
L 1416 1441 
Q 1456 1047 1700 850 
Q 1944 653 2381 653 
Q 2734 653 3104 758 
Q 3475 863 3866 1075 
L 3866 213 
Q 3469 63 3072 -14 
Q 2675 -91 2278 -91 
Q 1328 -91 801 392 
Q 275 875 275 1747 
Q 275 2603 792 3093 
Q 1309 3584 2216 3584 
Q 3041 3584 3536 3087 
Q 4031 2591 4031 1759 
z
M 2881 2131 
Q 2881 2450 2695 2645 
Q 2509 2841 2209 2841 
Q 1884 2841 1681 2658 
Q 1478 2475 1428 2131 
L 2881 2131 
z
" transform="scale(0.015625)"/>
      <path id="DejaVuSans-Bold-6e" d="M 4056 2131 
L 4056 0 
L 2931 0 
L 2931 347 
L 2931 1631 
Q 2931 2084 2911 2256 
Q 2891 2428 2841 2509 
Q 2775 2619 2662 2680 
Q 2550 2741 2406 2741 
Q 2056 2741 1856 2470 
Q 1656 2200 1656 1722 
L 1656 0 
L 538 0 
L 538 3500 
L 1656 3500 
L 1656 2988 
Q 1909 3294 2193 3439 
Q 2478 3584 2822 3584 
Q 3428 3584 3742 3212 
Q 4056 2841 4056 2131 
z
" transform="scale(0.015625)"/>
      <path id="DejaVuSans-Bold-63" d="M 3366 3391 
L 3366 2478 
Q 3138 2634 2908 2709 
Q 2678 2784 2431 2784 
Q 1963 2784 1702 2511 
Q 1441 2238 1441 1747 
Q 1441 1256 1702 982 
Q 1963 709 2431 709 
Q 2694 709 2930 787 
Q 3166 866 3366 1019 
L 3366 103 
Q 3103 6 2833 -42 
Q 2563 -91 2291 -91 
Q 1344 -91 809 395 
Q 275 881 275 1747 
Q 275 2613 809 3098 
Q 1344 3584 2291 3584 
Q 2566 3584 2833 3536 
Q 3100 3488 3366 3391 
z
" transform="scale(0.015625)"/>
      <path id="DejaVuSans-Bold-68" d="M 4056 2131 
L 4056 0 
L 2931 0 
L 2931 347 
L 2931 1625 
Q 2931 2084 2911 2256 
Q 2891 2428 2841 2509 
Q 2775 2619 2662 2680 
Q 2550 2741 2406 2741 
Q 2056 2741 1856 2470 
Q 1656 2200 1656 1722 
L 1656 0 
L 538 0 
L 538 4863 
L 1656 4863 
L 1656 2988 
Q 1909 3294 2193 3439 
Q 2478 3584 2822 3584 
Q 3428 3584 3742 3212 
Q 4056 2841 4056 2131 
z
" transform="scale(0.015625)"/>
      <path id="DejaVuSans-Bold-6d" d="M 3781 2919 
Q 3994 3244 4286 3414 
Q 4578 3584 4928 3584 
Q 5531 3584 5847 3212 
Q 6163 2841 6163 2131 
L 6163 0 
L 5038 0 
L 5038 1825 
Q 5041 1866 5042 1909 
Q 5044 1953 5044 2034 
Q 5044 2406 4934 2573 
Q 4825 2741 4581 2741 
Q 4263 2741 4089 2478 
Q 3916 2216 3909 1719 
L 3909 0 
L 2784 0 
L 2784 1825 
Q 2784 2406 2684 2573 
Q 2584 2741 2328 2741 
Q 2006 2741 1831 2477 
Q 1656 2213 1656 1722 
L 1656 0 
L 531 0 
L 531 3500 
L 1656 3500 
L 1656 2988 
Q 1863 3284 2130 3434 
Q 2397 3584 2719 3584 
Q 3081 3584 3359 3409 
Q 3638 3234 3781 2919 
z
" transform="scale(0.015625)"/>
      <path id="DejaVuSans-Bold-61" d="M 2106 1575 
Q 1756 1575 1579 1456 
Q 1403 1338 1403 1106 
Q 1403 894 1545 773 
Q 1688 653 1941 653 
Q 2256 653 2472 879 
Q 2688 1106 2688 1447 
L 2688 1575 
L 2106 1575 
z
M 3816 1997 
L 3816 0 
L 2688 0 
L 2688 519 
Q 2463 200 2181 54 
Q 1900 -91 1497 -91 
Q 953 -91 614 226 
Q 275 544 275 1050 
Q 275 1666 698 1953 
Q 1122 2241 2028 2241 
L 2688 2241 
L 2688 2328 
Q 2688 2594 2478 2717 
Q 2269 2841 1825 2841 
Q 1466 2841 1156 2769 
Q 847 2697 581 2553 
L 581 3406 
Q 941 3494 1303 3539 
Q 1666 3584 2028 3584 
Q 2975 3584 3395 3211 
Q 3816 2838 3816 1997 
z
" transform="scale(0.015625)"/>
      <path id="DejaVuSans-Bold-72" d="M 3138 2547 
Q 2991 2616 2845 2648 
Q 2700 2681 2553 2681 
Q 2122 2681 1889 2404 
Q 1656 2128 1656 1613 
L 1656 0 
L 538 0 
L 538 3500 
L 1656 3500 
L 1656 2925 
Q 1872 3269 2151 3426 
Q 2431 3584 2822 3584 
Q 2878 3584 2943 3579 
Q 3009 3575 3134 3559 
L 3138 2547 
z
" transform="scale(0.015625)"/>
      <path id="DejaVuSans-Bold-6b" d="M 538 4863 
L 1656 4863 
L 1656 2216 
L 2944 3500 
L 4244 3500 
L 2534 1894 
L 4378 0 
L 3022 0 
L 1656 1459 
L 1656 0 
L 538 0 
L 538 4863 
z
" transform="scale(0.015625)"/>
      <path id="DejaVuSans-Bold-20" transform="scale(0.015625)"/>
      <path id="DejaVuSans-Bold-70" d="M 1656 506 
L 1656 -1331 
L 538 -1331 
L 538 3500 
L 1656 3500 
L 1656 2988 
Q 1888 3294 2169 3439 
Q 2450 3584 2816 3584 
Q 3463 3584 3878 3070 
Q 4294 2556 4294 1747 
Q 4294 938 3878 423 
Q 3463 -91 2816 -91 
Q 2450 -91 2169 54 
Q 1888 200 1656 506 
z
M 2400 2772 
Q 2041 2772 1848 2508 
Q 1656 2244 1656 1747 
Q 1656 1250 1848 986 
Q 2041 722 2400 722 
Q 2759 722 2948 984 
Q 3138 1247 3138 1747 
Q 3138 2247 2948 2509 
Q 2759 2772 2400 2772 
z
" transform="scale(0.015625)"/>
      <path id="DejaVuSans-Bold-6f" d="M 2203 2784 
Q 1831 2784 1636 2517 
Q 1441 2250 1441 1747 
Q 1441 1244 1636 976 
Q 1831 709 2203 709 
Q 2569 709 2762 976 
Q 2956 1244 2956 1747 
Q 2956 2250 2762 2517 
Q 2569 2784 2203 2784 
z
M 2203 3584 
Q 3106 3584 3614 3096 
Q 4122 2609 4122 1747 
Q 4122 884 3614 396 
Q 3106 -91 2203 -91 
Q 1297 -91 786 396 
Q 275 884 275 1747 
Q 275 2609 786 3096 
Q 1297 3584 2203 3584 
z
" transform="scale(0.015625)"/>
      <path id="DejaVuSans-Bold-73" d="M 3272 3391 
L 3272 2541 
Q 2913 2691 2578 2766 
Q 2244 2841 1947 2841 
Q 1628 2841 1473 2761 
Q 1319 2681 1319 2516 
Q 1319 2381 1436 2309 
Q 1553 2238 1856 2203 
L 2053 2175 
Q 2913 2066 3209 1816 
Q 3506 1566 3506 1031 
Q 3506 472 3093 190 
Q 2681 -91 1863 -91 
Q 1516 -91 1145 -36 
Q 775 19 384 128 
L 384 978 
Q 719 816 1070 734 
Q 1422 653 1784 653 
Q 2113 653 2278 743 
Q 2444 834 2444 1013 
Q 2444 1163 2330 1236 
Q 2216 1309 1875 1350 
L 1678 1375 
Q 931 1469 631 1722 
Q 331 1975 331 2491 
Q 331 3047 712 3315 
Q 1094 3584 1881 3584 
Q 2191 3584 2531 3537 
Q 2872 3491 3272 3391 
z
" transform="scale(0.015625)"/>
      <path id="DejaVuSans-Bold-69" d="M 538 3500 
L 1656 3500 
L 1656 0 
L 538 0 
L 538 3500 
z
M 538 4863 
L 1656 4863 
L 1656 3950 
L 538 3950 
L 538 4863 
z
" transform="scale(0.015625)"/>
      <path id="DejaVuSans-Bold-74" d="M 1759 4494 
L 1759 3500 
L 2913 3500 
L 2913 2700 
L 1759 2700 
L 1759 1216 
Q 1759 972 1856 886 
Q 1953 800 2241 800 
L 2816 800 
L 2816 0 
L 1856 0 
Q 1194 0 917 276 
Q 641 553 641 1216 
L 641 2700 
L 84 2700 
L 84 3500 
L 641 3500 
L 641 4494 
L 1759 4494 
z
" transform="scale(0.015625)"/>
      <path id="DejaVuSans-Bold-67" d="M 2919 594 
Q 2688 288 2409 144 
Q 2131 0 1766 0 
Q 1125 0 706 504 
Q 288 1009 288 1791 
Q 288 2575 706 3076 
Q 1125 3578 1766 3578 
Q 2131 3578 2409 3434 
Q 2688 3291 2919 2981 
L 2919 3500 
L 4044 3500 
L 4044 353 
Q 4044 -491 3511 -936 
Q 2978 -1381 1966 -1381 
Q 1638 -1381 1331 -1331 
Q 1025 -1281 716 -1178 
L 716 -306 
Q 1009 -475 1290 -558 
Q 1572 -641 1856 -641 
Q 2406 -641 2662 -400 
Q 2919 -159 2919 353 
L 2919 594 
z
M 2181 2772 
Q 1834 2772 1640 2515 
Q 1447 2259 1447 1791 
Q 1447 1309 1634 1061 
Q 1822 813 2181 813 
Q 2531 813 2725 1069 
Q 2919 1325 2919 1791 
Q 2919 2259 2725 2515 
Q 2531 2772 2181 2772 
z
" transform="scale(0.015625)"/>
      <path id="DejaVuSans-Bold-78" d="M 1422 1791 
L 159 3500 
L 1344 3500 
L 2059 2463 
L 2784 3500 
L 3969 3500 
L 2706 1797 
L 4031 0 
L 2847 0 
L 2059 1106 
L 1281 0 
L 97 0 
L 1422 1791 
z
" transform="scale(0.015625)"/>
      <path id="DejaVuSans-Bold-66" d="M 2841 4863 
L 2841 4128 
L 2222 4128 
Q 1984 4128 1890 4042 
Q 1797 3956 1797 3744 
L 1797 3500 
L 2753 3500 
L 2753 2700 
L 1797 2700 
L 1797 0 
L 678 0 
L 678 2700 
L 122 2700 
L 122 3500 
L 678 3500 
L 678 3744 
Q 678 4316 997 4589 
Q 1316 4863 1984 4863 
L 2841 4863 
z
" transform="scale(0.015625)"/>
      <path id="DejaVuSans-Bold-6c" d="M 538 4863 
L 1656 4863 
L 1656 0 
L 538 0 
L 538 4863 
z
" transform="scale(0.015625)"/>
      <path id="DejaVuSans-Bold-75" d="M 500 1363 
L 500 3500 
L 1625 3500 
L 1625 3150 
Q 1625 2866 1622 2436 
Q 1619 2006 1619 1863 
Q 1619 1441 1641 1255 
Q 1663 1069 1716 984 
Q 1784 875 1895 815 
Q 2006 756 2150 756 
Q 2500 756 2700 1025 
Q 2900 1294 2900 1772 
L 2900 3500 
L 4019 3500 
L 4019 0 
L 2900 0 
L 2900 506 
Q 2647 200 2364 54 
Q 2081 -91 1741 -91 
Q 1134 -91 817 281 
Q 500 653 500 1363 
z
" transform="scale(0.015625)"/>
     </defs>
     <use xlink:href="#DejaVuSans-Bold-42"/>
     <use xlink:href="#DejaVuSans-Bold-65" x="76.220703"/>
     <use xlink:href="#DejaVuSans-Bold-6e" x="144.042969"/>
     <use xlink:href="#DejaVuSans-Bold-63" x="215.234375"/>
     <use xlink:href="#DejaVuSans-Bold-68" x="274.511719"/>
     <use xlink:href="#DejaVuSans-Bold-6d" x="345.703125"/>
     <use xlink:href="#DejaVuSans-Bold-61" x="449.902344"/>
     <use xlink:href="#DejaVuSans-Bold-72" x="517.382812"/>
     <use xlink:href="#DejaVuSans-Bold-6b" x="566.699219"/>
     <use xlink:href="#DejaVuSans-Bold-20" x="633.203125"/>
     <use xlink:href="#DejaVuSans-Bold-70" x="668.017578"/>
     <use xlink:href="#DejaVuSans-Bold-6f" x="739.599609"/>
     <use xlink:href="#DejaVuSans-Bold-73" x="808.300781"/>
     <use xlink:href="#DejaVuSans-Bold-69" x="867.822266"/>
     <use xlink:href="#DejaVuSans-Bold-74" x="902.099609"/>
     <use xlink:href="#DejaVuSans-Bold-69" x="949.902344"/>
     <use xlink:href="#DejaVuSans-Bold-6f" x="984.179688"/>
     <use xlink:href="#DejaVuSans-Bold-6e" x="1052.880859"/>
     <use xlink:href="#DejaVuSans-Bold-69" x="1124.072266"/>
     <use xlink:href="#DejaVuSans-Bold-6e" x="1158.349609"/>
     <use xlink:href="#DejaVuSans-Bold-67" x="1229.541016"/>
     <use xlink:href="#DejaVuSans-Bold-20" x="1301.123047"/>
     <use xlink:href="#DejaVuSans-Bold-6d" x="1335.9375"/>
     <use xlink:href="#DejaVuSans-Bold-61" x="1440.136719"/>
     <use xlink:href="#DejaVuSans-Bold-74" x="1507.617188"/>
     <use xlink:href="#DejaVuSans-Bold-72" x="1555.419922"/>
     <use xlink:href="#DejaVuSans-Bold-69" x="1604.736328"/>
     <use xlink:href="#DejaVuSans-Bold-78" x="1639.013672"/>
     <use xlink:href="#DejaVuSans-Bold-20" x="1703.515625"/>
     <use xlink:href="#DejaVuSans-Bold-66" x="1738.330078"/>
     <use xlink:href="#DejaVuSans-Bold-6f" x="1781.835938"/>
     <use xlink:href="#DejaVuSans-Bold-72" x="1850.537109"/>
     <use xlink:href="#DejaVuSans-Bold-20" x="1899.853516"/>
     <use xlink:href="#DejaVuSans-Bold-63" x="1934.667969"/>
     <use xlink:href="#DejaVuSans-Bold-6f" x="1993.945312"/>
     <use xlink:href="#DejaVuSans-Bold-6f" x="2062.646484"/>
     <use xlink:href="#DejaVuSans-Bold-6c" x="2131.347656"/>
     <use xlink:href="#DejaVuSans-Bold-69" x="2165.625"/>
     <use xlink:href="#DejaVuSans-Bold-6e" x="2199.902344"/>
     <use xlink:href="#DejaVuSans-Bold-67" x="2271.09375"/>
     <use xlink:href="#DejaVuSans-Bold-20" x="2342.675781"/>
     <use xlink:href="#DejaVuSans-Bold-61" x="2377.490234"/>
     <use xlink:href="#DejaVuSans-Bold-72" x="2444.970703"/>
     <use xlink:href="#DejaVuSans-Bold-63" x="2494.287109"/>
     <use xlink:href="#DejaVuSans-Bold-68" x="2553.564453"/>
     <use xlink:href="#DejaVuSans-Bold-69" x="2624.755859"/>
     <use xlink:href="#DejaVuSans-Bold-74" x="2659.033203"/>
     <use xlink:href="#DejaVuSans-Bold-65" x="2706.835938"/>
     <use xlink:href="#DejaVuSans-Bold-63" x="2774.658203"/>
     <use xlink:href="#DejaVuSans-Bold-74" x="2833.935547"/>
     <use xlink:href="#DejaVuSans-Bold-75" x="2881.738281"/>
     <use xlink:href="#DejaVuSans-Bold-72" x="2952.929688"/>
     <use xlink:href="#DejaVuSans-Bold-65" x="3002.246094"/>
     <use xlink:href="#DejaVuSans-Bold-73" x="3070.068359"/>
    </g>
   </g>
  </g>
 </g>
 <defs>
  <clipPath id="p31bb3acf36">
   <rect x="43.78125" y="23.077969" width="491.04" height="354.816"/>
  </clipPath>
 </defs>
</svg>
